<mxfile host="app.diagrams.net" modified="2024-05-06T02:19:20.880Z" agent="Mozilla/5.0 (Windows NT 10.0; Win64; x64) AppleWebKit/537.36 (KHTML, like Gecko) Chrome/124.0.0.0 Safari/537.36" etag="7tGvS50Lzv2VSQxnH3Fs" version="24.3.1" type="device">
  <diagram name="Page-1" id="zLbMQqg9JuGbICgRWOdx">
    <mxGraphModel dx="1050" dy="583" grid="1" gridSize="10" guides="1" tooltips="1" connect="1" arrows="1" fold="1" page="1" pageScale="1" pageWidth="850" pageHeight="1100" math="0" shadow="0">
      <root>
        <mxCell id="0" />
        <mxCell id="1" parent="0" />
        <mxCell id="FVp5BuUO7eJ0VFPydzr8-1" value="" style="sketch=0;aspect=fixed;pointerEvents=1;shadow=0;dashed=0;html=1;strokeColor=none;labelPosition=center;verticalLabelPosition=bottom;verticalAlign=top;align=center;fillColor=#00188D;shape=mxgraph.azure.laptop" vertex="1" parent="1">
          <mxGeometry x="40" y="200" width="350" height="210" as="geometry" />
        </mxCell>
        <mxCell id="FVp5BuUO7eJ0VFPydzr8-6" style="edgeStyle=orthogonalEdgeStyle;rounded=0;orthogonalLoop=1;jettySize=auto;html=1;" edge="1" parent="1" source="FVp5BuUO7eJ0VFPydzr8-2" target="FVp5BuUO7eJ0VFPydzr8-5">
          <mxGeometry relative="1" as="geometry" />
        </mxCell>
        <mxCell id="FVp5BuUO7eJ0VFPydzr8-2" value="" style="shape=image;verticalLabelPosition=bottom;labelBackgroundColor=default;verticalAlign=top;aspect=fixed;imageAspect=0;image=data:image/png,iVBORw0KGgoAAAANSUhEUgAAAQAAAADcCAYAAACf+X+GAAAAAXNSR0IArs4c6QAAAARnQU1BAACxjwv8YQUAAAAJcEhZcwAAFiUAABYlAUlSJPAAAL5KSURBVHhe7L0HgGxZVTW8quqGytXxxXkTmcQMYUAkiGIkGAiioqKCfuBn+FCMKEYQfhQxgGIARBBFlCBJQKIIkmUIkxiGCS+HTtUVb6r619qnbr9+w4BO92N62un93ul764ZzT9h77b1PLIxJmFCapsiyDOsu7dAOfU1olI5Q8IrI+G+EhH8jFHkWogSMS0hXY3i1acQxH64Ch9tjeM0CRgXghqUYH705wrEVIIsSVMMApdEIg94qkqiLwBvhvP2zOLCrgXvtrWIf32+SpYPhENUsATxGUi6R11PGn2DEd4slH57nYczvj8cFBH5o6SzkoqBjfs7XkyK/zVPlQOl2Rz0wskd0B2MGHeHxnC/x/1oUPP9aUoEfKJVKlqevRgYAEnoJ/47g79BdRWk2onwUkVIQBACl0RA+z0sFn3cDxKMi4giol4ETC8uozU/jvdcdw1+8+5M4Ma5h6FXQSwkKno/ZmRlMTc+g5BM4ximlLIFfJD8P2pgqZLhy/x48/OJduLTB+Bi7T1AZD76EWpUf9OcolHW+QhEe8qcE2KMcVJRKyYMAyUluRlke6DJJ8KDH1gRZslOQ8OsdBUeChjED4W7tjl6RWAoavtYkIBAICAzuiApxHBsA7NAO3VUkIaDsmgYd8TgepRSIDF6pSIY1EUTM60VKSqczxCgs489e+zZ85GAbt/kHcHShQ4zgAxR4FChGBIHG9Czm9+5BuV5jTLQGhl0UsxjhKMZs4OOCqSlcvncGl+wBLiQQXMhvVNBBlNESSCkg4wABoyrkckIAcepfgqvUUeszyCCRANeVvlzZ5yAwOU7wgqkY29GF/Lxggu9PjncVCQB8X+B6JhUGg4HStUM7dJeRCbiO5DwvTVCkxIyLNL8lgLlU8J6sg6OUul964atwfbeCtj+PbqEOv1rBsHeCD1BlJ3xQ0lkKUa9PYWrXLtRmphEVxyg3qvArHobDHnrdFRPw/fPzuKJZxuP2A/eiPOxuOm2coMuoInoHIe0PnxbJxGwvyT4pYCjXgM9JhHylO1f2Igm+hH4S7sgOoPNiR10t8B+Nc/69KyHgjkFgBwB26C6nXJuK8YKMXrccewkOQ0IZkfZfGXSxUqzgWS/9B1y74iGavhQdmv6jYyeBqo+56SIGK6f4UhGN2hS1eBHdfoQGBXz/RfdCqRmgw7h7aYwRtbpH6ZcujwcDlFc7uCps4IHzDTzg4iIu2gvUmBbaAhTJmAAgE/+0yZzyzdiElQLEv2b6K/EKTLNoTfDz3+5gb+m7BYvFbJ7JVcV0x2b515JuDwI7ALBDdzlJBDIKhZnD5D4JVC4bWRxjiUjw6cU+fvHPXoXO/KWIW+eifXCJN4uYPu8CjLsLCOJTiLvLjKOEsFxFFI/Q7tJDL5cRzM3j0vvdFwl9iBF9YPnpAb9VoskhzV0cZSjRX0/6PQR0Py6fb+ER51fwwH3A3jLvZ4ynJIgaMXaP/ygwsggkwrT7ZdpLf+uf/HvlQ1lYL0gm+LxgeKD2AbVNKJNjBpk5RcLMmr9x15IAIG8T2AGAHbrLSaIvP11iIr1clPBPAKBHQT5EX+CnX/I63ObN4NgJCmN9DpjfgwLNg/GpZZrpKX37RdTKFC8K0WCYIuOxVKlC3JxGQ1z2jQ+nccD4SxRfCpzMdrM2GEfC7x/td1GiK1EplVEeRtiTDHHFbIiHX1bDfc9xboEsgTITVjZk4g8dS0q5mvZEEm+5BgoOIOzqmuCvC7QATPgVhxCpRFDZIgBQw2AYTno5dgBgh75WlCSJaZuYWj1NU1SrVetmTqiBM/E+z2v03SUTiDKkRR/vv3EBz3nNW3FzuAcr5SknKJIgvi9zH2lA4UupwVd5jEy5jmh3m5ctzSrhUuvh7BTudfllvDeCTyAYD2Ka9UVaANTZXoDu2CNoFGh9pDTbR9bCr67ECkFidtjDL373fhAHsIvJq5mc9pmMCB4NgwKfUzeiQwUJfgk0JDAYMF3MQ7kih4KUS5YdlUkF/rA08n0dt4jUM6CwAwA79DWjTqeDSqWCojQxg0igUCIotAcdNCgopXiIQT9BudXCmz/0Jfz2q96OdP9lOFKsIlVfvJraCRgKBUppIZPA8WcppgDpuu7rgq5SoKR++akiAeCiyy+hkKuPn5ARxbQE6AYQMbxSQLxx5rt884yA0acwZBRmL/PRijPsG/bxoH0NPOwy4JLZSfchn60MIloGlPa1bsICBu0ugqCKEl0RjWGIOj2E9ZYecJTLed5wYIK/dcIvyq2AHQDYoa8Z2QAbCr4sAJ3LCpAF0Gw10afJLevAo/YcUBj+7E3/hbd/+jb0Zi7EDV+4Gd7eWQpmRu1M9rSWNVkKBfipDHiKLYXYTOiU36DW9lLnics/z/hOZa6JC664BEP57CEFPCVglGglEADKHgEpdr0P8vILFFqPgOB8+jEtESr46SoWjp6At7SMr9s9ix+43zy+6VygyZSMCQKlQoIo6qNCkPLKZV4tYLjSpmAVETYl/AIjBrVD8HzSAmA4JSiUe2GGxRaSyn8HAHboa0L9ft9MfpG0voBADU8CAv5ATH94SAHukPv+6o0fwes/ciP69XOwGFMsqrQMxn0TGzHnaKyGNjIrf/gZzX4KWVJ0OhkZAUADgnTkUzL5DQBmGrjwyksR0UoYBUUMCAAaeajBbr6MiGzo4mYcxVEJAQGgxAuCECXhSLeNBgV5V9BAvdvHbHcFF9QKuP8lu3Cf80vYT5mXEaC2vXQwREBZr1UEBMwfQcqNUeBPgoDa/1kC1vORA4DePd0WvzWk+tgBgB36mpA0fS7wufkvkgD2aI6XyiEOUSJ+81UfxMcOriJp7MIKNS7CIhqzM+gOpOmtiZA+N43zsXrj3TD1rCD/XeDiAMC5AWLjSSiOEU41ccnll/IXwYFAM5ILwLhKtBZQLmLFGyDypJul9V0HYJFA4xMIyoxzjmDhETSy8dCaHiK6CEPaKxHNg8qgjR+6337cZ1cR5065LkQJs08VHxAQCikBocIrGhlIMNJXmGMDAVkBdxcAUL3sAMAOfc1Iml8AIF9TbsBwOESz2bThtNcvA3/0uvfiMx0PByP66H06ArvmUEr6GFMAs4QadOxRfggBowT+WI5CaoODUgr0uEAjWiOHKPgFCb8C70ncdAxaLVx6+eVmEXgEjHGU0uymwyEAIMis+DFiAkCRgKKuwkTCMAGAapphTnEQdJhqLGcxTjLN/VIN42AW0wSYqVNfxMWNIh502cV40MVFzPP+qAdM8b05YlOR3zXzQGYLr8nVSCn6Cvx5t3AB1A6wAwA79DWhKFILPc3tSZ+zhF8aJwgCE/7/+5fvxmpjH245cgti9QM2qUclnFWq1IQioqGCMsvVZ08AkBE9pt+dMYzo14/lX5Oc+c8j35U2l4+f0u8uT7dw4eX3RsTzMdMwjKnj1fLOZ/wSgYUg42RT7K8TtR7wjBd1jGnGpxRbxVdk+oPAt6C8CDRiugVV3g+jVcwVYzz4vL34tvtM4TxiUpmyX1fkTLfr+iNZD4XcAul/nbvLW007AHCPpfXV7rgxv3J7hljPqzrXffK4kdjZhIhCccabGbUfhUUML++8SzkY8+dnbmrjV1/8Ghyeui+WRiHqtRhhRUNtM/T6EdU7HfTaNDDkC2rcG9GDVh+bBLQgkYwJAJJ4982SAQCPdolOAi8LAEICwAVX3BsDnmcU3EFC94HpUTLLpQBBrLhdblwznXIk8BghKRFuvJKNSJQboiaDMl8MmAaf31Z+lvsZQoJZwxujnAwQDpax1x/hIRfux8Pu1cS5tO/lGoSSfxVLPgZAP5R2Kzj+UaHoR17IenZCavucvGGP56RH88c3SzsAcI8kVrkJ7ISoTZ0YOGbLhTsnJ+STwAckNxRVuy5TdjSkeU4zuaRpttLM8sn1IDXvoDtEUplBzy/g/TcBL3jVu7BUqKPL2FIKgjWNUbAUp9IAmuv5FxWFtC1kTvOuzHsLE99aZr96CWUFyAJQ4iVm6tP3mw1c8cCrMKDgxXxO12V9ZAQCWQBjmvmnhYovWuBfxquvyS1wVoZLh0pHaXEWA38bsBEo9DwjUup8gl49jdGKB/iG8w/goed5uGrOTUUOiWHOJRgy8JhNSjALmY0AsfJNC0HlScxiYvlF3ubTlh61F+Tp1W1ny2yedgDgnkgmVKp2BjH5BADW6ag1ciLgmE/B5I4XhnxQMleUQI1jBCVekOxaLDrwpk/fH2Ws8ue7vzjG8//27Vgu78fygFo9kOBLKu6Y5J/mtH6aujtnWAMACii/JQCwBkLdZUK9Vh1XPOAqRHQhYgZBR8j0jCYAkMqqOCOn/3MSSBSIPBpIlMi3t0ZJggqj8wl+VYLAHMsjbJ/EFbNlfOeD9uNKjWlioVVHfVTKLCgDSSZUPRxMdMLfasYwF0MDdGiFKC95CansJ7bCWp2cDdoBgHskscrFrar5CQBI8HPhX88QOcPZcd0NyfcwphAwnrJPzSUbnEBgwV4oo48QKzx9++e6+NPXvI2qcC9uO7GM2swcBmRvDcD5SnR3BoCUwh3R3Fca/KQIn26LN5k9qEZKjV9Y6J7A+efNo+nRAjp+Gy5vBPieB1yJ+zdoDRD7mnxOBkGktHoDVIq8yPTIMuoznrDQMDytTSpGnoKViApe6SZAWN1tknYA4J5Ka0IlRjpT+NfdOVPjrL9JytRaTy1GhUXzmOdRDyVxdVim713BEUrjP3/kJF7+5vdhVJ3BMBlh3+5Z3HbkCLJqE0nRTIY7pLszAEjAE/X5qU0gKdH0LzIdWsegQFO+iNgbo7GnjOMLCxgnHcyXi6h026h0VvGgc8/Dt93vAC4iEKiNQCZ/yHTUsxUaBAmiQpnulWYgBKbx19YdUH5Vtur2VG1oMIMsiE3SDgDcU2l9rZOf9NOF0zckghpcY5RftiP/yF4VTYR4RIGS91wgGgz41kHy6ts+uYgXvfZdwNQ+CmEB9VqAtH0MQRjQLSgj1oy4r0B3ZwBQb766CAUAkQSe8UUlTSRmadGPV9KGq13M1OuoenQTetLrCaoV5ldtEp0Ovu5eF+EBu4BH7IHNOajT2I+7CzbqGX4FxWrLOkKUQqYa5Yy/Ut0kqTfD0zgDQcTmaAcA7qm0vtYnAKC/OQC4VgHR5EEd1r+TUIA0wIdCp64y+BRu/u7x1mHy6j+8/xb8zVv/HbXz74MTq0PjWZ8sXSsM7HvdLKAFsD0BwKMQl6mNBXgDmuJ9v4iBp4E+ShZdglERYVyw0YVl6nE/CFAIXYNeO46Q0FLyem1c1qjiIbuauP/uCs6fdhOPphhvUMhQ4DtqJoxYWM4SYOwaYaijyt3TqMPNDyXaAYB7Kq2vdZM1XXAAcFrwJw/lz9qRd61/iqJGrYc0olKjKFTq1tj34dvGeO/nD+EfP/BJFJq7sbrawex552Lx0C20dz1ccP4B3HLrbTQcKoyG738FujsDgFpMZPCrNyJmOtRtqK5HGUVKj0cAaAV1jPsECaECRTjizZjWe7HioVWlQCfLiPsr6Ea0jCjsl+9q4aHn1fDw/bQIKPGB2lL4pbTgG7AopbIESuMV/mAui/QhCC+bpR0AuKdSXutrcqYLdxQk8DyIJPj2gkJ+f0RhKpkGvJWc+vJ/O4SXU/PPX3YVTnWo7dM+1VgPU3vmMIiGiBbb8HfvpVncO/3pO6C7MwCM+G01yll3JNMga0ld+5ombEcmQN2NAbW0VyDQ8WF9STkSbsp6GvUOotKqIG3O8ecYpd4qdpUiXDkHXD7j4TH33q3FkNd0vEBAsZTR4Zlik/DTZNgk7QDAPZTWZGoiZ65/+8ymQK3OY+PF5W9KquxhHtUvTyGIBkOUKjV0efkYLz3vlR/B268+iPr598ZSnyxLASmO1SKgcf0jZGovKIqt+UKm2XiShjumLxf6CeUAoLRK5TIKyWGR53pOOVDa/JkpXHbf+9DpYD74uYjmc5kAoMFChh1reb3zJI3f91gOjKicjlChbx5mI7oGilMNo8Q9lpuGLLvZhj7dAg9e6tEtsNcYB5OuKc3FPsEu5jWmnaAXs4x8mg0zaQcPP2cKT/+6OdA7wKCziEa9yhRXECcjhAHzkVfeJki1ukP3RPqKvCOhoFkbRSjJd/Xo22uhvskwVhMwMne316cs19BmPGrt/+Ffehk+fvMi9l5+fyxRy5tUUjolklTSFH69P2m5XqfdtyUZiDAvIwHjZC8BKxu6AcyaLIORZiEWNWyZ2r4YExBiZF6E2Esx5Gt9hkhTmgmsNoKR7w9KIVb8KZwIduP6bBqf7IV41j9/BJ9YIkA0ZrHaH2NlNWIRaj7B2SnDHQvgHkpW6fpDPnKs5LTX5A4Ggz7CcgWRxtCTUT2a+LrT61HrVembUuOm1IRfoJX/I7/8FxjvuhSHV7Swfmir8g6HXUYsbagPSOgdgJjwS4tnKRnffeuO6O5sAZjAI2Cg3URB1xBlFBJmLWPcGmEoy0dwoLzyF/OtJcsk5CnDyAYNBTbxqE5XocRn45IDSvkWNgKR5b3aXUDFG2J32sYvfPOVeEAL2Evc8ROWs/peBaibpB0L4B5O4rk7oorW14sSCjrZmMwoj1mj/8a+BqrwnML/kUN9PP23Xo7CrnvhcCdBMLcXxUqIXmcJnnWKSTD4ogk/gwkEXYMxNdoGhe/uQPLzA5aFggBlLCeHWjlWKLlzCbtMerUXKGiOQeRl1P4MXkKLSIHXSiWWpUYSylUoIBindBcy1Gs8r80DUwewUj0ff/Qvn8L1lPvj/H7k03I4S1bUDgDck+mr8JCYukjfP6yUTfhPtbV0Fl8h7y3ywjtv6OCZf/S3WPZn+buIUr2BeNDFOBsi8KQb1ewmmmh9+8UXRwQGhoL5y9uVaG2YBaFWeU0qIhiwcLyshNKIGpw+v7o4o6JPAXdjBNRLoALX82FGT16TmGgt9IOYgWZ9gS4XQXNEa8LmI9CyCvvAHI/zfh3evgvwO2/4D3ySRXiYZap9Cs4G7QDADt0BSXzF3jJmzcpGpeHMzSHl+F0fugm//tLXYXzOfXEqcjN35+cadGyXqOCHqNSq1gCm8fGGMhJ2jWIbJTZSUCbvdrYAHNHcZ5Cp70DAdf9pQxGtMFSwocEuFHnuExzCtIBqXECNRlA5zQgaiS10cnqpEDWUqgFxjMWVLlpNoL0wsOJbTWgt1Ofw+o8dwjKfVK/A2aAdALiHkvxghS8niWYBMX1TrbYbiS9J6vJfoFv/5rd/Cm99/0exEOzDoUWgtuccNOs+Vg59Aefsn7KJLqu9AZm4TPd30k1FJi+OhmT2yARm2xMLThBpAMCjAECbm8gC8DIJu88QIEhDlJOQQh+gHvtoDgO0hj7PiwhHKSq0hKajGFORA0UTfroO2nh0XBljFREaF5Tx+Vs+h2rgY6a+D0eWQnx6SVBxdmgHALYpSXbzcJomV8iQp8Ppy2eEdadiJml7rYrrdukr2Uq6oda1Yxy6r97nf3zPp/DXb/8QvjQMUdt/EdCapb/fRa/Xw/TMFPoa8qo590PZBGItZ/qri0sM7hr9NLjYsZ2u39lgebod3RGQ6VIebk/EtU0SXYCCXJzcFXBfMSOfp2oX0PgEgYLOS/ab1oHOJ9cdjenvE1wtoWovUKOiu07PwfYOOXLqEC645HwUfR/Lq0NaYFW8+z+OnDULYKcXYBuS8cskGNNZ4K9cONaEhHeMo4yrzqBuL0WVZj0VPYa0zoOyAwK9Ke/STW3R5t1FHBmM8Fdv+zDe8NEvIpq/EivjCrJEA1X5okxYmvXOhJ3oRGv0y3WL0uVMfgWXMqXLLY31P6G8F2CtNyB/ccQ4+VlNlhE46L4ZLJRCT70A97sPdaga4YAoSVAOQt5yvQD5GgNfic7oebgDOp125SU/dVfXv6lv6aoLKgPdd/905t6gQ2ENhroyKTc78BkDTuVRz8ruKGL38BT+4NEX4ioNBtwk5bW0Q9uQ1jPWGZRzlej0Q2eE0mQqrjSNfg8pz5n4jT9T/pFIL1O+TxIO/uS1b8ObPnINyuddgcV2hMw263Ct+XpDLdhJIWAgbFhrvy5TwCwoRqXQjGUedf9/Lvx3SOuya9nhbyfUdmmNbvfz9G++dPt7d5byz5ko8+NuKTFZBQKW08GNCVB36Ijm/dgWELEpwxT4vFtQwcSb4CQrSUHLK5gFoVVBNLKQZabVhfWFiOV/tXZNPQu0AwDbkMT0OaM4s9hdNw1kZiQZqkiB0/h01vCIKmR90KC+IHS72SguLWCrCaiVNEY9G6CYDkz4T3k+nvoHb8SbboiQ7r0KN3/pKFpTPrz+MTKmhH+HtoKGxQo+ubBZCHO0AwDbkUzopV1zTSNmkHYomJZw69DnQbqamod3Uwp5yjP9LVLoE23YodVyqZ2CtIti0qMPT5bwKzjYA578rFfixoi+/cwlOH68h3Df+Yi6K6jQsHYm/3Ynwd/2CzEr7yZtqHAWaAcAtiWp8gUAFEKBweSKRJKKeyL07lxg4AbkakKMFtVUkG8PhKEHvzikg7xMc7OLUlDCcuLhv46n+KWXvBG9mctwKq5hENFPqLUQLS7xGW2VKVNezLhNyYrsywVruwS5XCeGOy7APZwIANTceStTbgfouD44eNAjElnX1q9g52pd0tLV4oJ6C7HXxPuuPYLf+5s34/qlMU7EgV2HegPU6OeVUCzXkZRC+rU7rLNVpJrUEOezQTu1uB3JhH5dmDCD+ythd0GVqyY3BbX1afS6gnX0jQY0IBj41DhoYblQx79ev4i//eAN+PANp1CcPQ82e2+wAqwcQWt3E41dc+icXII3tYvvTRr7duguJ4F3qFbCs0A7ALBdKZdyiuKZmv604EvoFbQllsegeepuIjsvCjio0aOwhUXefevnV/C8v3833v/Zw9h11TeYl592VhhPjOpUDe1jhxEN+5i99DL0Dx6afHuHtopsotFZoJ1xANuS1Bmkpj39cwNrpJFzv1x/FTLtbJEkCLWApNoL0gRRp41wpolkuIpxcw+O8slXvu8gXvXuT2NxFKLSnENvdQWelq4WtDAicycmfdxnQs3GyNJ3J7juy8YBiBTJiDlnthTUG6KlyTTzT5GXplu45L5X2iZDagOJ0xShxgEoSxbN2RKhrSDaAMzDNd9je5RvinYsgG1I4l/XL5x78+6qKjPX+tmAd7VQhcbjW1+gj3E0Rji9F8snuig29+LgsIC/eMtn8Q/v+SRWwzmMGvvQGyTwWzP2DcUsiHGSovhT+OPIwk4vwNYFAf3ZcsF2AGAbkhhAw3U1dFdiKV0mG8CjwNo8dKqHkLxS0CqyAatYvCLNF9S0KzYa+3fjs3Tt//Idn8RbPnw1TvYiZLQQbFBQuYyk36f/7xbtVIuzQEATVrxxbJuAeOOUWtTBzg7d9SQL5mzZLzsAsA3JaQBn+ku6xQwSU9ctmLrg86rsXckpH1sajJBVgWEIHOXtP33TR/Evn7gZ7XEZ83v2ECcygsNkJR+pfw1EVzDTX8Big3ztVr5l1val7Z5+Vs1ZAuAdANjGJBZWBbqBtQKAdaMACilKYQn90QgnutTgc0XcOgA6ZeDZf/kevO2zh9BvnoNitYl+Zxm14hB+TABYXQTmZhmpzzgUBC8aYuSEX4NQ4kLwv6MbUPMktmEQ/Gsa8dmgHQDYhkQ2sOCEf1KJ2mtO6l5WAIV/FPUR0WdHuYigVTCtP64BP/Arf4kvrhIJWrts956IWn6QjW2NP98jc1Up9F0tPa2hvvLzKfoFj+4ABV8uAYMtabXtWScvxe0YHBacDdoBgG1Ka8IvtSzZVwu5hF9CSzN+cXWBFryPLq9oo46E/v2TnvXnOEnNfWwwQK1RRrx4Ev20iGJrLwbj0IS7ScDA6lEUMoLASNt88HexhnGxxdBg3HILeO0sMeAO3XmSC6gFV84GiYc2RppJIq1jTqE7iP3WGaE81/RMmY66oycmhzxMrumveFhPGS8znL46ueIu2sFO7SS/f7ug6xb03uRFku5ORCSPbsvIks+g0nFt7e5sLYXmz/O3ylh9PvkLk1OVs540MtOQEj6mcNpK8h6aU7twcGHBYjxO///Jv/5iLJQq6NbmsZCUsLRCAdfCksMIw2GCyuxuROkI7YVTmJmfsaWpi+ZS6GuSdjGcxhBMJJ+XdbaRsGmyiJQA1xGqxLhWEXfZ0sYgcHQTpvSKu6GZeVqjzx7apsHl9qyU5CbGASTSDmQg7XnEtFCRWJ9rzjIidRW5JSbUiuyxIvi8OJIP9DttVFt1PlRCu08VVfIQhs6bTZMYVV+LJDI22wyRkfNdTTVV/HrGN9UnX1cX1mVBpyYQ+iGWYCiywOjL6l0FkUTl7GDonSclzRVDzsDOx3bNerxjl5QHhUkehPiWV/nhwAJN9CI18QzLVWvNx6sRgrqri6WlZUztmjbt/65rD+Ilb34XbuwVEVf3IIqrzDhDOrTvukY+kgTF0pCnzImU9rqzSO05JsxA1wr3jGL/WtEZff/5uUm3AJJHsoD26fRSppc/rY55P5hu2cYgg1GCmGnWFCiPFlGUaWMQH96oRHCY5H27EdOdUTFc+zjtsbA5EndtjIwxJwXIg1vMYO2nRaz2aQXXUcW7qjjdJE8llECtlKqKKVf59LiPOB5glMU29DxlRaljy/ZA80I+W7KtlbREvVjQMSTfy49nBF1jyBM0+ezk9G5BLj0unU70FNYTU6rErg+iSbaKBZYbC1Lnvf4QQSPEcDVBezlGY37aVvB508e+hJe9+f246VREX38KaYkmvE/QpaZXudmXKRwWLCalQZtZOMjWb3c/o1eRMmjZa73DO3l6toJcsU1CnhCXrjWanK+V8No9ntiP9Q9vNxLHnJ30b9wCkP05qQSNvhLzKiKJn7FOfkGkAqewS6TlFmgig1ZqSTAkqw1RYyTVCcOByAz6o50+TWKfCEeLVkCtLZVKvEUjwZ5UEOkT6wXHYtHFPIjs+7mBrYungWnLaJI2AWdeVKpUaWCVoTP7eVNBIMcgzJWG0/NR1kdITab17TXUN17qodqYgpaM71SA13ziCF75rg/gxuMrqM6fS8VN7ccIRnXejPgQNftpobj70le0AHIGowXgiTfMIHBWnkx8b6qJKx54FYayAKgtNRXa830ksgDo+mjhzqIpsW1IzPaIebrmcdpgfHO04RJIKWky+7W6iQxGGecBa8OTlnBLyrggoDDzQJ+SnyvRH9ox5Oer/CtNlg37SNvUW3295KNRraIq5c/vaIq67YbMo2wGVWcedX7Mg/3m54zyo07IPHJJfAZNhpG5vWWkTzs0Ei460LJL+QAfXrFttHRkpuXCqKz5jIKerPOFUX/V8rLQXkBluomMr/TJE3//Hmr+t/0Hblympth9Gfzp8wgYAUF0TADlR9VMYAnYrqT6VAGIp0y/s84VeEkFaQuh8DrPbaSkwJM1LpunqH98T6vv7BCLanK80zRg0KpwYiPt/VZEn5WSh8lqMWeUsQpf2iqhxk8Q9NuoUhNVM1ZIRv3v74dXO48qfpaRkvEZsUduD3nUNoiueSvjmxE6cc++qyBZyuVJYQ0M+G2r4zwN9iD/yJy1J3Rhi2h9ghlyTZxfzvOQ46aODuik75V+Ok79DiplHyvHjqJebaJDdDzO517wlqvxD5+4Bof7AUrN8/n+DN2CCKOggrDVgk9hCPklNY5tW7KCUsEwyKphiUjIbRcihwlWZgYKBAK33h4v8KZblFMAoIh2aMMAkPOvK1aeqXFIPQOTfmhb6lSqjVpJE9D0oJ517QIlNAstlAszlMkmkkIFQ2q6Pp/tMWib6ZhHWRnS+oq3NB4QACJaDEU0ycyTerbj+qBrIscA/LYu2EX94MGYZ3LcSsrTIlqXlvxynsQ8uCvORpCn7lcryFa6mN99AQp+DYd59zlv/AjedM1NuK6boFCfRxi0aBIQjIcRSg36/mGAnob9JorRCmV7EitVq+6aJmet2758ufAbTUqMl8QDZhlY/QsA3Oq8+rdD5IKNtgG0GWRJaj5SQevDaSsTMalVhLY6KtPXl4Hq6kUrxJcEEBmfVXdVwUOXX16iGXHLAnD94S5OrNAqqIXYv6uJSw8EmGPk83xU69UVFX+q3gKZxUSHgs9q9l1FMh5lQsEEx12yKlYw/LEHJgClqxbHGsfctaREKhlKkxLHZNhCkZNLeZpzQJMB6zpUtZLPZMy/4uiPkVRquJnZeu6bPoL3fPEwOikLLJhCoVekpRUgTROkzOq4yVLM6DAPIlu6240a1Nfu3nRHbQAy39Xqr5JRm5LrSWGQErLCJdEluuyBD0CXPJdYVypQKwbwhiMEngY2qTvQPbrtiFk9W20AGwaASScgQr0twdbKMrZGM39Tm6t5TwDgfC9nwpf1LB/TM4f58ps/EeGDn7gaC0P69ZUGYj6YjYZ8Nka0cBDfcMUFeMyDr8QDzm1hiq/5KUEgFggowokA2/x2cbg+7EgAoE0WxAr6tu64tdet5CYXedXMwi0gpcO6N0kTH1/FMrni0qujpZlB6KWy5ROuKdPDsDOCVw/w+ZPAi97wbrz3yCI6auGvNFlGfCQpoBJnLEuCBOunL3ip1eGxnDOCwjjqMVrFefemOwIAaX9fDVCsyMjKRmXCoLq18uG1qRYuf+BVtCYzxKOxFV+9GCIYsExK5E1PU4fXxb2diMnecgDQynJmgOXq1mLhHyKrlkLWbHXpGDVo9ai5i+MKajQZYsrwF4fAj/7N+3GiMsWnWGGsCIfiIo1zHtGyYAUtnsAFZPInf+vD8Ogrp7GbdxsSnGJMvGmjqFZCSY6giAwxHggcQhQqZYz5LddA6UgCZSAgns9RYYvk3zSVCZ/y4nxYGfZqzNI/uUlIWHopLR/rh2fCtR89BXmQECC1Ph8vffYYff43vBcfvOUQ4tocEZImU0im6PcZ7xilLEU1yWzbKtkNw1KAId0AyzstMXXr3d3pjgGAZbY6xMzcLgJbgmGf9qi2Mhcf9clgtHAau+dx3hWXY4WSP/I9AgD5oxejQnZXA/OwRHtqBwCMFTZEHv1xNf7ZRobiTfLpqKSWVzGsz39FpGTEMRmt5lUwIE8f5Z2ru8Az/vptOFifQVRvknHriCtVJJqGGjIEVQz8JpbGdRT2XYHVxvl48Rs/hBf982dxmN9ph0W0szKGfhm97qozQyJWem8VhVoZhbLH7/KclxVUxdIJClbdWyX060lpcMPUmCbXOSpIlR3gGlQTJIMeitoFVlVE5o17CXr9EcrVljXAvu864Dde9n78+00nEe67kKBH7T8ksvZ78EJZR9rMc0RcdA1g+pwnDWmmv4KVxrYkFV+rOYWlQ4cx7HUQTtM+nABaq85yIAj0FhZRTFN6jRGFJUNC90f2U0FWH7O+XWX/bNOGAcCpUi0w7XoDqHNo9rurMrcKiYdmqYl6RuHnDVnpHzkC/Nwr34obKbw2T92Wc9ELAg1eG1UZAStQYUhHIK3hyApravcl+I/DA/zEn3wYr74ROMhHb2P8Xn0Ow4hM7VFQmjR9V5apOQfwampxkCA5Dae6FgCoMejuRC5dAgFnA2jBDTfWMaMir+LUwYPUZiyggFYU8xu0KlhgQX/w+hTP/af/wMcWKeC1veisDFCilRVWWI79RczQarJxBETHmGbvgFbRkFoxY3l72YDYwLANtP9XpjFWO23Ud82hSGsvWtW8BdqkFPbh8gqqRVoAtKxmWYa+5J15jRKteTCCT2sgpLWwQ442AQCmxlgVapN2AiaWMxnTiVCB97VNXJEC+47PdfGn//wurEzvw7A57xg0pv1uy1YRHRIKLcEC1O7IAjRn9qK/sEyNR6SnvXssC3E4mMVL3v9F/NlHB8SKGr7QHiItT2NcbtL8p+BMzZLnGRe1p9Oouba7u5FMco3iE/DJkbK2bLviSnKE7tIS5s89j1ZOavvyB3Oe7Qr72SMZfvev/h7XnGjDP3ARmrN7aP3QJaLW0zyekl+iQdQ3P1moqwk+seejz+sxP+fTAijTNdBefduZKhU6ibI+h0REukdhk0qj10W0sIDdauuIY3hJgoDFEPhFlLwSwjIt08B3TT87JoDRJgBAvclqhZeeYSEzqFfAGq54sU/Z7lD4Y9bLP/77Cbz6nR9G25/BogayF8qoDVO0unQPaNYGgyLdevpwSUBN5sa2F2nKnn9gH1YXjtKy7WNUq2HFq6Mzcy5e8/5P4//712swaE3jOD+3qG82GgQdMrW17jMB1jCUA8DdDQRUas5VKpizVDIYWKNxgdq8avjoT3vo8NElXn7HZxL84p++EgdHIZr3uQJxZxHto0exa3oeVVpRnZVVVFgO7aU2tE11SSOD9B21+tPiyigI8p+DdNJ2s01J1e2HPnoD+pPMk+o6WlpAi67AheccwImbv4QKFUyPYOBL6xMgavUyQrUZ8dk+FcSO+DvaMABoio+aAcXGMrjL4zECypyAVS3wCeVxwPDit92M133ks+hWd+FUxKeLRASqIp/CXpZZmxKZaZv79E+1yaS1hxcS9OMObj18M3Yd2IPqdJNX1WpbwOrhw2hS8334xmP0gf8Nn1sk8JOXT1DpxzR1bafLqiZJqIrVtOYsAenctczeHWqfaVBZSfcXDEKVOgmlC36lRr/euVYaE/EP71vAb//Fq3HCm0LS2oVusspCZ16TPsZk8iotpWKhijGtJ/g1+v3S/oxL/YUKJu8EAV23PfzswraliOZ+ELK+1ThKi0ahSxcwWm1jV6OJb3/YN6AVBmhUK7Zr8WA4JKBG1haQ6PkdMtowAKinSTpWvGVbzMZ09FPa/WRqdeetkGl/9e8+gnfccgSLU3tw80oMvzyLFkMxCjAsTKFDZh6WyhTcEUalHkMbqd9GHPQQjzrAnhmcIFoPWcnV0EMt7WFP00Ny8jDGtXncGlfwglf8K9788RVongsk9zQNT3cJ2iDRSRAI2KWtJwm+ZHISXHoFpTxOziOa8DSODAD++i034E/+7nWIpnajuP9iDFKavoeup6+fIpgv49TqIp8ns9f3I+2FqAQzyGyLL9ZLSXXCoPUBsxLLu4KuXz5r88m3hIicZdazJo+h00Z5dhrT+/cio9tUp3//rGf+EB79iBnU/AD1coDu6gqGUR9xmhD4qAhUNncLRth6UklsiISh4l3nsrIw1R9fUIOTdpQFfuefrsZn2yNcT8E/mRTQ2nMOebuEPpFYvQZxyUPEkGioJlFkVEhp+Trtr8ZBb99uxkmmZYWmaYoBKzBh6CycIIP75l4so4ZjBJG/+cCn8MK33Yobea1DP2ShzTjolEjg3ch67ZKnFE8qXQc7XTs5TfmlyWXLHoN1VzIua0VXA5q1qPOh9c9P3hHd/vL6YAm7vQK2qdLUaGN1gPoEwgKGLKc//seP4e/f+++YuvTedAXKWLntMBp796E+N4ulm28kU1O4WR7t1VWmUEJdwkBzKix+pXESMoKhsqCxExZun4C7jqwcKIjqLj69trGua9yIXMsyi5buEcGwxDIukQ+spcmZTGa9rCwu2HbfU3O7kJ04js6t1+Mx3/pA/MGvPwHffB+gyaJYPXaU7JShSMCseyFqfL5U8pEwTqkGl5BtGM4ibXgcwAlWih/HmFG/vFdBOqTPxVLXkNRnvOwz+EJnbNom9zUl5EN1E2qur3CHcmRTS02wXFu4cifGsFoWg+Z+Ki+pkcx2xJ08Z+PidJsVS4RAud/Hveshnvbw++Lx96XyW41Qr9EqKQ2QjGL0aEcX0UJT5rEaJtVoUVQiLGZ9xfjLkjMhKeN8spPWNdDCmMgk/Eofkca0qM4n6dTBnmeYHG9PckWUZ1klq+02mq1pyievEiTHQka+p/bQw5TrP/yHD+M9X/gSXakZrKgFjwDhh9NI1MhXounPODQMVuArYZE7oY/aghdqjHHmhUuIlaWC+4aBgt3YKCmSDZKlj98nmAY0yZX2lP5ORkBHgUFp7S4iqPuE8QHCChUFL62uEti0dHGR10eskcVFzPhjtLweHvmNl+BpT3wo9jN6TXY8TJfwVe8/jOsCD8eYzwLfM1BJfXglLWu2TiHcDUn9/F+ZxCvAtU/YwnEAGpcvrSpTdUCbf0jhv64N/NgfvB/H/RZWggb6AgYJCit0TdjFmNrWyCpAAzkl/CLHnIWcmRmvAb4C7+ht7aeeUOi0n3pA/64oZmBlgt8aenVc283wT1d/EX/9wQW0myGtjBaVdRX9doqpcguNcgWHTzGR5cnn9GH3cZN7AYqE3u7pwHs+bwQ58OiCZJ6fzZ+5I8qF/8uD/tmXsNpdoPBrLMMK8aOEonxZCn6Xh4Nd4Nf/+G1456euw6mUzB/UmQgm2vfgs+zUqj2mxSBLwU204IHCLqYeGajJUuF39CmBlQm/SKnQPQY73ywp3g0E8cIoMUDVsuNu+XE1Ieue0pdg9sA+xCeOod/vIpIP3+kgUNsO3Zew1rBRoffeP4u5pIdnPOG78MsU/hZ9fHmCNtyXeVdPh6b8aupviUfNAbC2EQaXlh3aMACU4witsIZivYpFmvGfXQae9+oP4fAgwqHlk+S5AYuYHmwhNuaU5BRl5qqFcNP8xwhGQ5TiVZQpQK10SPOOfjMF9MPUCq+49kY8/32H8TEqjF6hiVb1QkQnKBjdHnbvqWA5WmLOmSalR2BjYunWKegzjqFASkHWzZDfGvCohg1KfrsQoE0NNJLAqvTWBYGHyRt/npm9XOu7oK816g2cOHUStdqUeRVLFPoT1PoniWc//+K34OPHFhBVabE0d9HSKsLrxyjGQxo7XcLmYFKm25M8CnmddRayfLPiFMtyjuxB4SZ4+WO6eOOjWDx2LfZcdg48anAtWOrRfUzUtUQNXowyzBUjzI+X8eo/fgq+9xFztEBpjdK6XF08jqmWsxPlEtn0aoLM+qNqQ2GHHOtuiKrUwNKL6nG/+gTwqy99N04E04gaLRRr9GNL8ueHFAoHACpw25vOZr1MpGQTpBbdLBrQwu8gjHqoUftVKj6yShVHSjW849Zl/NLffBj/fhvQoVAlYctmzSVZB82ytCYF23jAiasTTiHTZPyAWSj6LUHjMzTz9YQ81phMpGFGa3P1GY8Ef/KkkaJ2bHZa8E8HQUABc/N7+ZQHeiuIpP0r2pP/NfjcMjVeYxajhgY6Ae1TK8h6A/hmLg/hySzZxgBgpWPgq3oQC6rUHL+UCj2GLgGygJOnjlLePbT2n4+BbqcZ9tbpVp64Bd967z34y995As5huTX59p5ykfywhKmZppuUymtaQs6EnhrfrXQk4XfgYGnYxnS2Ur9hADDGpS/9ns918fxXvQOLjf24JQ1RnKfpphl/RTJrIaJw0MyntlWhyxzzyLcaALiZDJjPXirDK1epIVipWR/pYAXjIdWoWrvHIU4kVdxa2YdffsN/4a8/A6xMUcDCIqqlCkYaOSbhlrmsxJA1xCJlxiyvijzlSFapehYYMvqaclj4Np8xOBPLWsihwjGWBDPvedDoPhfWC79yv7S0yrMqlmgk9fnBEyyQJ/3y3+BwoYzV6jRdgQq6Y3rABMwCzeM63ZdQbSiaEDWS+7V9AUBLx3Sp+WP6+17WRSk5SYNsieXUQ0IXJyI2DNI+RnEf4cxutLssYX8ataKH8PDn8aKfeAx+78cegtJSDzMstzCj9dY+jDrrSOaUNfLzei787igAoPATyF09bV86W8Iv2jAAdChkh7ojvOjV/0z/fzf6tTn0xz4rjjcnPqe19PKfiT8vqR1Arbqe+dSbIVboKKRGb6JAfzAjCGTUjMWMFkFC8CFDIKihmxRxaoaa4iOfw5/++0kbNJRS6MLaPiZO2ue0V+5SxOAmNfCCJukUraVDXXFax0hPamqyQECkv+7dnJyQuzcl+KeFXiUi0HBF7mNqah8WO4yTiHP1sRGF/yU4TvdiVV10cpOY/oLPtNZbqE9NoxiGBFb6zIlsDzG6vrdNSQ2vRZYkXSltN1YZ91Ee9Xg+pNYmsBZDmvQE2gMXYnDsGOqNKvzhIvYWe3jlc56K777fDCpJinOmidBSNt0F1Gs+4l4b7ePHzRWTkal2BQOAiea3T0/qYnsX4NkjVyoboFMsxRe99l9RPu9S9IIQHbWOq1FuSJ1Iv5YczCLWmnUUAz6r5ZjHhVwznik2d5bUJq95A1FhitqzxhAgCwsIwjFmqdFnxwkC9RFTWw7oHqzs3o03f/EwnvWqT+BjN/My/UiqdJNeMYZEKjKznoJvreoKGp0nkHA+ox52Qi0XQXk4nQOdS9gnOmaSvzyI3BOKS5aTjgOa9qVGAe+/cYhf+bO/xEK1hmhmyr5gz/boPnW6GA4HLNsYqwwx3Y0gqCCggDgw2cYkF4ZBM/IErAIC7TloDZuFOgrnPxC9pQy12Vng2PX4yUdchHf8wffiALX8HB+p0l1QO5Ctblymj5fRrmhMWXfz8YXMPE2NddACcHIF7JOMXQ2PeSvADm0CAD7WBg4Xm7i106fPX8Nw5RQrgWLUmqFdzAIflSkhZVWtGQQSfnMHDAgkGJupACa7SLu8UEFMM3lIhOmZ5iArFRLnEvSX4LWoXskc/SPHcXRYwNUnY/zp2/8Lr7+6iw7l0La5MnbIRZ20Llk6FaM4sZ1M0zVwUMOh7rkCVFhjKmt959HkP3+eMUx8Xgc4NPv5yDs/2sXvv+J1OEgwGNSaBAXe0Sg1jVen72uRME9jj7CiXo9KjQxNK2FFXYD6+jYlmy1GwS3ESItF23EooeuTankZWpYYBfBlSY5iTHUO4zd/+NvxS4+7HHO8tLdVQHt1mfcYh00NZ9lqtpm17HuIoxGac+op4m2CidP8gkvXJCiQsRGntEK3LTHpZ6v2NzwO4HEfivG5z19DYS6gO4wxJHNnNGEL5SmMjeHlFTNo/XrTsZIIpV060unJjWZDg0UwbvB1Vm6hRyag768jhjak2K1RIAskNCZQ16J6Hn0KZkBLpZUu4/EP2oMnf+vF2M9HA/JPNU+KSbOGHWs9eTeEOCBQCCJGcYqRhJu/C2p70KMM6h10eVVw+VTehqs9lFvTPKXPvzJAY7piy5qf7ABv/fBJ/P17/xNfHK6geuE5WOK3IADQcOauduLVPgq0NyggY2p+xWFkedMH9Z0NVd1ZIqUnL7Q7SWpgZb61RFltdg967R6KdHlGPGpcR4Og3fn8x/HYRz8UP/2Y++H+u32U4yUUWdBZeZZfpSVEuLANMrXckQDFG/KKaqNqDdOfIUa87P0xbiCQnhxHqBVZpqz7Et0r61Fg0oXP25G0ItKYbu41T6xPrmycxO4bomtXUpwgUnfJjONiinIxRpnC3mThEr9ZuhJSholudDuyqN9XR5l9myGBC30/LT4qYRjxe+rcL9aQ0IeOPJ/WgDKXoJYy2KIYJUTFCpYIUAfrc3jjDUfx+/9yNT6/RF5kFOoZNNWsqAddyhu9fzVkSgPzktP6ITw1PpbUpWk44YRfabCgcwVaI90Bys0ZJHEB2oqvQuHviO+Zrn9812fw+g9/Gl9YiTD0m+hrkI8auiI3XNkr09YgACn9thW3jTq0OwY+FnJA2JbEQqoEaO2eQ+/YCf4OMDpKAa/OoKmyPfpF/PpTvxvP+OZL8Yh9AaYKq+QvOmgl6fGUMK8FZ2RZ0vQ3JeDzasggWHBV6OCRZWT/pXJkAaRWnnIDzFrboY0DwJGFHitAhS5ezBBSxXp0AQINvlBLvEa1yRJQUVNKJPQjSY2+uEnetXH9hQ7DKoXQjSSzqcRjImKBlkGJ2oSaNDbfT41w9KxZ6VblBKjMq+OgP4f3HOrjWX/1bnzguhFCKmqoc2CF6lkrGPEbWoVY68kP+OaQAmeT68RdBAp5MZYNi5R/TCsriOOK8BstDOORmfrqRVBD4gpv/doL34QPXncrPru8irg5jbAxT0uYEdMK0RiJcZIgzRg0PJpBy6yrlbukghYIqOtRzdzbGgBKCKd2oX2Majqgkuj3EOzejdHhm1Be+BL+/P/9AJ75zRfg4ecSdBMiM8s29hoE92lTJ+qInagA52ExJFZbGhy1jgydTzfEymIQH8j+dHW1Qyy6DRK1qhaX1Cg2aSQ1tCT0yVIKT9zvOM0ls1ZVpYowfuUfM2E3x7yue21IZhjySE1p2pdaUWsJjAQEDNQKIwp7TK2RUlWnBCi1Q5iJLmAqTaPnzeOY18Lvv/5teOWHjmO4CzQfKYwhQSSTx+9YxS3H6TCNHwWNinWUM5MCSYJJAFBrdo+cKVwipOAgBfx3XvIuXHuyi2tOrqAwvwvFXbuYlABRPyb7Bih76m/kwyxbDfG1oc4k5c/m79vwUCGPjpPvbUsqIOqyQGjuh5UaqhXmvn0YV+wO8A/P/VF8x8UBmgR3pDTmpUwiLYbq/HnViGZ5uHo5o+RJpx1LVZUJO8vN7Wa0ncvry2lzEnSaNgwAF1c9TFHYtc56wioZFqqIfY3ndgjtU5QU1NDjAGAiPebbSrg2kwVWqk0ciiloWpZMQq3L/Ia0qYJa+QseTewSukEBA48AIDMy0z74fPdoh35/EydpxRzaPY8XXv1JPOOtn8AtMxW0gwBZ2kRxWEexS53T4Tfo+0vsEuGMMEbGhcjyxmAcxzxROwt4jtH/VzulhP9m/vmVF74Bnz26gqF24q1PIw5LlOeBdV2NhjFCmrMhXaZSRo1IC0ZdhSOCWMK43PqX0mJMN60st7KyUrM9SS6N1++jRQXiDyJUhx087r578ZbnPx73CTto2ZrTzF9JQ6DpRgVTtrJP2ThNXGSzHk4HFr9nNoCWoTVHiQqIz03MfYGGdM7IQJXlbrx4tkRoe5NKYkP0kP2zaA57NE1pntEHH2oYTXWaithHWNYyF31WRI+CKgBgZVqh+6wQj6CxWQDguxNLQh46jWVeknZnZasRUA11Ug824pBBnyKXqA1CwCG3YW5mGqtfuomuQhGD6Rkcbc3iX249hp975b/hvYeBUxT0JPConepoeE2UGS9hgVEljFYLSuibE+FfCwZNZprWWzWcoLx+ibz83D9/PY4MMqwENdyw3MeI3zIhzugY+EX6/CHT5VqwabKQeYkwakPhF9MSr8vqKE7GIGYDulgEgW0MAGqoxdIS5qIBykuH8OPf8fV4zlMebCs/I1rkA6zVQDMiNVWcAKx2AdZpIaVFSavKJ2cJfyXoBvwMEn4HALIVHABoyLHrktVDOhMA5OMCxBQ7tGEAePTFBewiMwaKQo19Y5rf1SlaArQAPKEu3QAGNaY5AJD298nArD6Z15tyA9QgJ10gs5DxWvwCmiG/Rw2vwSVZiirBqZwQjBgKAgOmLWXahn6M5eFx7L3fvSjlQ8RLVNGtfeiV9+Cj7SJ+7Y3vx6s+k+ATC8CA2dPwBvnixZG24jqOYnaC34/IUBrilAfNzWN0vCMAWGKSDi4O8evPfwluXVpB1pzCKQKCukWHMZ8UB0uoKyUq/ACx2hgIjh4FvxhN3BnlUUucUf2NmG6BqcbQN5LI0rNdyWfaL9Mc/vZR/O0v/Rie8R374ZNN+oMhvPnzcTzysEp3qE8BTpnfgvr61eWnll0bvyEQmACAyTdftiFbPI5U/4YhLGKBpkBAEMAyJA/mowJ3AMDRhgHg4ecA+7GK2VHMCmItiKkZXcLKilUhBbVouz5X6x4z/5Wk/nBWn7YKd6vhKDh7QPrcBelRBYfgCqrC04FPKR75/XkWDAT4HQW+Z+2NvJRvBaWvmDWQP0uBancWMXXOAQr/HBL1zZWog2p7cLjv4YX//E687uNHcM0SbLeikc0fdqzke0qv695UGnVdTYYRBVatEmrw+6+bFvA7f/IyLNJ+H9CkP3TomDV4BfpezPLRwCma/qPhABE1YTxK6RIHKJcr9hWX0jy9PDI4ps3vTO5tiFSGSrdro3E7ADNOs6oE6Ll+XR90TSDOkmRw5aqGtUk85pIp6DfL16pK8SnoOZrvFE4t6tJKV3F+NcPLn/d/8fB7eahHY4RpH41KGUt9liCtLtVYie6Ptd4zcQWejxjXOOK3NNJzLQ886jQvGz6jvLhr7kT/8vtSGC7o9w5teByA6vhTt7Txwndei0+t+lie2kPtz4up+tMiVGSmUgsXyNSFoEpTVl02DaSDCrIuUT0UCwsk+I7eU2XaUb/zSuNfMb9VnI45Xk0qmbSWeN3mD3tax8m57q/xoS4YjU2DKs7M1hDMgx7i9wlq8zRqRsdvwX1my3jqY74B33hhYLsgybXR3oaFnhqoeKHRYsp9nOoTGOqh+fyfuCWj8P8l+qUKhV8jFjU1mWBl3XfMg74jDa6GKf42EJRg2T96rLpt6eV9IZnKRIFp82QK8wGVnK0FsCGSNSHwouALHAXGDAJVmzhjaZyk0wqaQWm1xjSXhkYYIksGrFfGQ5cvojWTaC8Da7mkFZPSOlMWWZZhlcZ59ySC/gouaTXwI4/6RvzotxyweRdmCDGI9CWJtEixKMh/V+3br7wCedCYQb1bUIe+7vuCXdKoQmuqaEvF/dUHFnBt6OMEy7pMV6/ItBU0X4V1oXEe1ii8DclynIxw7fc13IVN0EY5iLZxD/e7qIWnP/Zh9OWOobJ8G6a1T7OqZUiTOKwDZW38TYaKEsSdIaL2Ki25CH5TVa+MTJieFatMuTUDHJM5za/fYn4xgCg/6iwHhUkw5pi8QcbVenhaE19H/bZn9QyDrZhr75Em10zz2RwAAYGPhWGKtDmHL3QjvOC1b8TffOgLUI/1Cqq0e5osuSpdHs1DCzFIAwQU/i5/vf3qNn7+eS/GSqmFjtdCv1hHrGWRZbTqu2qfoMXkBI+ukEk6rxH81Eah+fwKGjVp4iDLyYpAVeUxTz4SLW4hAVVxbCTooKTkWedvqwMLk5t5+ayRbshSUElmiAYdmucRQ4I+tXbCcsKA6bUVVKi3V1co/BFm56fQLMa4bLqKSxslPPMHvxNP/KYD6hk1J86EeBKUQ9l0CrnN4ThDd3icPJhzhNWprtmf/E3Xc2PP8LIpEntGV0WKUfG5820bdDgLlJfEnaYkrOH4YoL7nAs89xnfiX3JYTTax9ESrpd30xQOMPCJxlqxh8JS96cRFivwirQOKs5cdIODpOUVJhXGkAusq0DlVOFsEmMlI6t7TWDj2CUPIjJRTM9e04e1wWZrH978H5/FC1/3YdzGux2mZ1SewuFblnDz4VVoO74FXn/5u27AX73hrejXmuj4ZQxsoQuxMdmZ4KKFKbSllZ8R+AgE2vXGcpbzJknXbDec2wcBh0L+ezMk8JDlo+5bhpTmtbWXymciCLkeFrlxGpygbUgYbH2HAYo8okiB94Y2kalUrdBUr6GUNKlhpwkA1EoRI9s7Y/N0485hTMeLuCLI8I+/9zQ86v5TIA6YcO/Q1tOGAeDg4ggzsz5WF0/g3nMlvOp3fxCtziEEnQXUxVw2aqaChKbggD5ekjrPaxR30OucMkZzgs9rFsjfCnxrDQwmwm/srj/rwybJxWyizvgUcgBQ5LxTbaDTjSnEVRzpjBE3z8G1Cxme/efvw/tvBY5QQU9fci5a587gWpqbL3/z5/G6d38INy/Sxz3nIloeGplIjURrwnzqibb3qPnX706bg4C6GXPBZnHw3E7vmCb38jzc2WB/la4iwVlHgpRZA8y/nAv1NsiNs9FJNmZfQBARGGIDB1knqU8rgHU4jDIkwzG9Pbp6Ws7Lo6NUYmRJDwdaHsKFW/CIC2bxZ7/6eOwWSzBaHVw6dmiracMAMLu7aIs0nD87j1Y6wC5ee9VznoT57Agqg5OUb/n8c/wCwygko3QRZx1UqGUCaziStrm99pfWn2j/dSEnna0PmyUXj3M3To/jn4CANLcXoLfUR2nmAI5EFdzY9tFrXYzffeW/4o2f7thWZzfx8b95x2fwT+/9JFYyrZC0B6cOLTMKNSKwDKyhMtd3+pLT8GuanpSDgD4rEFj7fUeUC//kuDFitdswWgWJo9od+EVaZG6RTk2RUqu6gMAFazOQW8JgMzs1VoIWjSbkIZJFQb9aG7ZWi6hWCthNRTD9xevw2l/+afzB0x4F9DKkwyEq/sR3Z9ihracNNwJqD/9Op409jSYrdISVfherXg09MsEz//oj+PhRslAwT/OZJrQW3YiO0/yPMUXG0VCh5VgDZiQcucBNjvnvnOxUvqkTV8f4E3DYIBflI+sUi4k/TeLTDV/CREYsjVzyobXn41MEtFodZY/WzMlTOP/cXZgZnMAl58xhud3Dpz53HRZXaR5XWoyPQqAZPzU10DAeSy9/M39yN2QF6dw6Dyfpt/3qJsdJ9twxp8lz6+m0DXHnSQOVbDFVfVeNkVnGKtI4efW6SMjlmmm5Luei2YcmVovaT1RWGsGo0ZIa51yiJZGpVyMiVxT6OKc0xANqY/zpLzwJe9X8QVpZOYXm3KzBi0aMVtQo527daRKHqAnXBgSpqUSF5QuoSARdeSCfpVX21/++gGvJjydZ7uUin5XrlZZRYtozujjK43Ykq440w7VP3MJGwGF0EnONKnp9raRXQtUrYl8wxizvPf/HH4ZHXjiDqaQLtNsmSOrPTil4SardXPvGZNbIpdo7Q50pe3cccl7cLAk8JpNDyde5PmLkZgWQoxhqLTqw6p47fgKlud18jsK/uIri3vNxmJh5fTTCf55o49NLPSxqIpLX4jP0hdW8Na7Ao1YskRM1hr+obisyoVqd02KCVI19zEyeM2l9d9BzCmcnn1+R9DkF87kUWEX8LVB0C2k6cLRUGCCyjGgpaK6+ZnyONeZDq5dqoxftOFRjBKOTwOAQHlge4EkXz+Nvn/Uk7NHU5izB6sGbMDU9ZQZWJ85sz4ItFT1ljaQy3pZhkv6zQRsGAC0I2h92UamGGAwiagbpvpiuwBCXUTk87ykX49FXzGG62EU9G5BB+CmZwxS4VFrHWIDBgGB9jvJsKmkK+W+RO89/bZRkgbilotxacRJF17otLe0AoNdeQKVVR+v8c+jf0tdRqFQwWlkhkJHXq00cov+7XApRP3AhvPl9GA/J3P0EjUoTflawSTyByoXAUlS8pl2ZdwUJGeOxytTRUjahCSCs0eSZs0rWqMiypzZWt56CpkxrKrVNrmIZOWNdQZYaLYZ1oaRFXzRIaUQwj06hHJ/EfRsZ/s/DrsDznvotqCpPJSqH7hKa5+3HKE4Qx9pPqnS3aAPIy347BqP8uEnasAugJiIJsIbGygVQw5bTJmQemvaaWHeSvPN3Hx/gzZ+4Ce3iFJYGPYzaB1HePYtSUEefDBEEIZVMCUNt6CnTVJyxsADMyJYgrdOIcgPULa4EW0/BhrmI3xkTpSxWgZFGLqpn3Q08ykvXIEHmrrGswkQg1Fqe0dzVT2rEYEymHtJc7tCs1Eo+GsxCkNPy3QVKVUpgHIw0p5AgElDAvIC4pzQoAvc1cwMsky5TchHWaHItv2+MoNN1j9ye8vaFOyLlayzfn49ojQSPYJQPmzXTn5EPEtZwOUTQmrb0Rj2a2HynyLodDdQzICDjMVpAI17CA1ohnvd/noyv26sJEENAOxR7jI/aXma/0itYEcgYWQbc6Z0lRfHfuQDXs3pe+r4lfJaFdJx1UfM9wpiPcRygRGtOk4q368rKVmyst2u2chyAExNVrISHjK0rumi1ozn4bWjN2++9qoLH3W8/Gp3jqNKkbu3dRwtgjN7yMnkkRNTtYLi4iEZziv42TcsOgWBKo8JzDjltBTiz1JnOmyPGkJu2Ftw3JFC2+QiFQcNI8/njWq6qyFCw9QcoGGPlV6lw70p0zKylOTzW3vxan47M3x8NMcw0ez1F2S+hHIgF+WasuFxeRC53JLs0aRxkGa1RLsw65NfX3b6zZJA2Ivgy+MyrAMDGG0nzTwYEaWGS5swexEuriG66DT4tvlq1QQuoA20DF5T6aI1X0Fw5hCc94FK87rlPxwP2VYkHdL7rzCXLQ12NGhmpdkKVmCXZeGQTiT+LlJf7dgtnk8T5GyIBr+qyxH8STTfUV1qBlcug2VsNar5LqQh+4KoZ/Pg3X4xLWjQDl1dQD1uohFV0lpcYEYUtDNDvELJljk7P8H0JlrLqBPPLk7lJBjJmV7x5yMlu8AqDAYEsGwlIRkFJGCILnrYWkrXD7BaZZjXuqcEsrVDbtTyk02WMm/SXiWcx3xsSEBV1yHxUU7oGCeNWcRlR4PUvF3z+X0vRHYGAyJ47/c4dha9GypvyJHBzy2O5xDiLR2MCPIQ08VfbXVosFWD3HiTtNnrHjsKjYO+drqI6OIzg5DV45S/8JF74lO9AcWWIQX8Vwb4ZdMgd2vFdmljk7JxJvmQ12NgCWV47tNW0YQAQqUKLGs+l7i79khpxjiR/U5P0B/B7K7iUlsqTHjKFH3j4JbhsugJvdRV1aYhhhJAmbc2jsHQHiGlahj7jst4Bxe6+cPpcxLjt9Ksz+X9LYvpJMP/fopPoSz8ymOl/+rsGCnaHoKChpbwW8nWtcKzGw1GJgicLoMp8N5mHuSagNQkrMrXHGEQxFSdhM2OJFekC6DUKuIRVX+CZ/dWzup7n9vYgsHZ9U6Q4zW5hPl1vhHZezoqy5dxkGesVoaVii+xrgdVBGzXa21OFCN2bP4evmw/xrr98Lr7hwmkEvN1kPoOKj1UK/ygMTcSlJCT8IT+n8pKraDZ7aaIotpDOTjluf9owAEhEydriHDKJGoYkuDyo2ZvCMKKPHQ0LCMplVn4f5WgZ33f/KfzyEx6I84v0v5YXMd9q8fEMQ5r9rQYFJhnZElHVilrSGe8aj+hcVZaHzZF8XU0Jlmlvc8bNltHnXHegNGCqQCCyoxoueV295Gr1UAyabupLICUgvKoORXPptV+9+sMrLI8p5kkWTb3OsvHoV49soyE5FybXE2E3ja1zhfzf5JqRHp6c2zP5768S1pfW7YNIgq8Ved3quQXEFP6I+UzkyhQL0DbapTrFNu2jQnHWEtyF5dvgLd+CH3jIlfi7X/0R7B8k0CNRkOJEv00A1MamJRs5IJNfJaMtujz+KKrRiHWt7d0iK8utJ2HQdg1nizYMAFrvV1MujcRV0tqFkFfVXcRoyUhldaXx3ng4RJgOMMM7D98L/Ox3PgQXzjbtfbIVKr6PseZ6i7HJHP2eJnbk7KrgyD6n+OzXxskBgHx7gYBWFJI2pGBREHjHAMCtKa9hsgKBSaAQCxCkITUZhXrfaVBpUv6VNWECqHxkLAUvQLnZQjA7TxU5RVDQxCAPPd7LCGhrgn87ENBxLdf6bcd15znZtQ0ERi7c1lwJhZh1FWs4sKwyLTkmrsg0ECih30+LZdRFsnQQF80FeNrjvxm//bSHYZpA1qKfN1CXbslDbXoWBxdOsj41VdfNyTe70DhWGp/1KyuDjpDbgiV3DLaIVA47tHEAAP1Ym5bJGDQeRFvnaTkGbe0ssS76hH3bmTejVqmgVd0Lr9tFa/kovvvyEr7vkVfhnD17UZOFQLN/YPu/0UfWKrpDNbZJBBgmFZUbBGej3tTQpxVkzAKgKDu9rpj5l8Jto+PWRsrJsnFBi1COeRQQDPnYkJaOpqjLhDbh1Jz1mEFTVlNZB7rhwyvXEFBAME0gkKUjwMvfEeko0MjPGQwIclp7bt35Jkja14Rfy6WxzEcm9HlgwpQ2rTw0GtJi72G4fATnzQb4rZ97Cn7iMffSTGpad/wjwa9Wceqk+nyAvXO7kNJdaLFMm2jTclhiXAx+B1mQ8HvqAvRQpqmklqMd2npijW+QjA/5xzSgY6rTrElNSsEfRANqwTI8v4Kon8KnRgzrAUq9FXzXxcATHzCPvYUeopMHMcXrZZrN2g22TCExv1xalIJhgb/NOzdtTeabfMcFZUMaRf72+sBr4yLjWt/Cfzq1Sq9L8/pzUc6cefy3C9Rkonzosvs+jwJEWxuBdgRBYsTzOEkMK4vlCkpNugKNBs0ngqResdLnTdOSDJY2HfNL60x5nfOaIQfPR/pXsL98nO9ZW4YbxOMaL6ljlV/eFbg5Tcx8MhgurU/3GukZlm0xQWW6htKwjbB7Cj/4TV+PP/r5p+Jh+woI4zFawkhNGOLr6i3ct2sKy8tdpAS9elAm8DEOAzTVk7OP5BKo5tT4+WVDP3Zoy2gT6wGIWXgkI+X1aT8nwVW+rjsmM+bVU+pK0wMjHz2anJ9vA3/8pk/hYyf7WC1PUUuEyIYJAmriEgWqRK2R0s8eMpQrJVTpYw/jBEPe11bPxoXmfOs7OtdRpFS54Ca4uH5+pcF6Lew5Ew0e+VPCbL/duaP8eHvSk7fjYjt1z5/51ulfVgb8IxBLtJFKRPNZrs8k7UrXOGEaCRqlIKQydmnKhwibi0KhlhAL60yS7IYaIwsU+DNisltKZcaLrqFPceg9Bk/gyJNuxDIO+b2y29MxXkW4fw7F9ikcIBA88X6X4Se+/f44R/N3e6sYJEuozNJKG+uC3D73DX1L5EqVeWAeJ5XOe8610tYq1j4sUho2SJYnxvrfjQP48/cu4jN8+gQBscr8BrLgJuMARhrJsk3HAYjIBrjm+6hQNkmqr42RmYquFhVJLoKn61VXXBehXdMfPa8ZaHpy3EFtuIorW8BvPuXr8I0XzWEqWUGY9DDVaiAeDGlhemTOIjxWXqXsIxpEWFladXGqBFixTmtOWNCYa3I0TZmnxh3tNskYiGlRg5QGFLnpxyIHAbkWlaDecZC2ZayMfy3Yv/X5z8kSY0GCa2d8qFBhOdQoRCHdC+UhGmIckSlZNEGlQvmhZmewjhXGuj4YMR2nRU9BZKknSLij5WZSR/ZlS/Tkne4A6Efwq/TH/THimGb84kE0Z2sYHbwJ52dDPOv7Ho+ff4IT/niZSF0p0jKoY3XhmItnkpS8/hXcJZ7JdZqMGtTybTL69Zw9MHlvh7aerE7ucqLmTotltOPMVoW5mKn43SfcG489fwrnFiJiA5mNZnJaq6NdzKikaF6S4TxfDUg1utoVEwzXiKc95QgW9FdLOmqTUBt+MtmRyARFZu/p1n23JtzWZF0kcVVegkoVJebR1saXoGpCDS0rW/6K5ykBYERwkPAWCbgy44W7GpugkYbaLrvAZ9TzOqbQq7dCG2bE1HADhiGD2mWsa49SZ+0KjF8LuVYKZfi8n1ATjpqMoNxH47wpFL50HX7s0ovxjt94Mh5zDl2VDnGCt5PZOrqU66joozF3gDmQuO/QdqctkQJppg61T73ZwuLJwwiSIS4gP/3W990X33HBPPZk2legj6GtmssbBIMkKcL366g0NaNMelAi7AayKOQDdbxJKBEY1pv9+qYNMLIGPm9NM24NMVVyQShMflhFoB6CFkNVZnWBls5QEs1zpZtHM6WddTKm8Otnie+7oHzojtwDyjfzla+CpO48Bbd0mARWfoMaaksYLCyhWqu4cQqrC2i1mJblw/i9H38SnvMj34g9jHaaoThKMOIjCcuuUyxilfXQp+kvk36Htj9tCQDIfJ8uV5B0VjG9axaL3VO2b9s8ZfU3vude+IH77MX+So9m6mGmkAbk/Lnk/wYG3bENVklpFcicJnszUBsaJKhFX9aAgvQg9R6PDgBkrgoAmF0DADHv1gGAUq5NVazLlCDglauoNacJBPStNRBKloCWIqb7IwDIRiOGzBpW5S5Ik49HtGK0JZomWFljp3IkayHhufxhBTnIzLuRntGztKKo+Sv3Ohft9glUoj7mWcZTh27Dy/7fT+IHH7oPs1T8g1OLfGWARqvIotP+SBr8VKXl0kCvp+9sXfnt0NmjLQEA41YyeZm+7rDXw67pOQyWT/ByihZvPf3RF+JHvuk+2F9n8pZO2ShBsfeYghDTNxVjmw9PAdLQVXrKitHiLdBV0B0XdM4w0aCOxLhbzbz05T363jT11WmgQMmCT5fA1zoCdYaQwupRyCmcGYU+ZXlpzr1AwJo/KMialjuiUI9HavZT/gSEbk9B6myG9SCgPMsCIMCwzAbLx3DgvHkEp47iCq+I9734F/HNB8oI+gmyYRsVnvewgoXOccYcU/jdLD6FZk1dvTv0v4G2CABI1lUEevQ1apsOKnOzaMcrWEqXbADJj9x3Gr/40Kvw4NkmgsWjTKnGm1KLCQDSlK9qYE4ZcTFEQi2qIN9ewCCr2LrGDAwkLRIABQlJftxaUo+hBFHjDgRiqRruaN2EtTqas7Mo0e0p2ngBXldbQBoTAGiOyxLgs9k44FFtIlpgxblE1jZA7V8aD+CN+jTfWVY2b4Eg4PwDBpahnXex+MXP4Fef8Fj88+/8MKZPsi74WNhgTCzno9ki0noZlUadXyigTHBu8LVJ2/8WMs4OnU3aonokk1m/FD9PAa60ZrHa6aBQDfjTxwpdghny7ZOvauAnH34FLq9oKe4FWsQdYKjZaOTUghrO6MMWqAUZkoL2mM8b+dS676wC5yowmNqUO+DM6K0EAaUoi2ITZDUGlqj9zW7h72LgI6zXUKDw23x7uS5Kr83dl/ZXuqXNFRFdCf7UL8teft1obL0VDhTUbsACHQsQhgjSHs5vePijn386nvrIcxHS26qqRylKEEU9+vjU+F4D2nB7wL9Rot2IBCL0CmhYCFfMqNqhbU8bHwewSRLDasyJGyUj1aNdeIsMvumzJi+vLKbw5zwbK/DMl78eC8EMgtaFuPUEOdarQcuOW186tRNqBISY59EAlXoF8VCr2CprJv6ngwSKRxMeJWQLyAlqjr0uZRqkJJAyh4ZHT49Q4NOIAtjvYqQhtxJCugV+iSZ4TLBL5IunBE3N3guteWMw7GI8IEiOKKm+RwzxUKc1kWnRFsZb9cs4v+XhVc9+DFr8hIx5Dcm2/nkmKaPrkNo/B5KqC483bDMuW9SFR6Vfyd+iAlTKNjsOIBMYWpfodqXCFo8D2ASpvhTs65o3XBJTBRT9gAzpNv1KqOWnZzzUyLRTw0W84pe/Hxeii95t12N3qwZf8wyGkTrNycUsCM1Tp19dmd2NwcLyxB1w7QMqLNdtOLZ96WybL5eCLaHby40gwC1wMmnW5AMxzXTjbTKup92C1ENQobiyrOQKVL0UdS9BqEU3shiD1Q76yx1iIcuyNgdvdj+tibrluX/yCJpZG+WVg3jCg8434dciri3yv8x5GWMa0qz5DRppEPBfhSFk0Mh+laGgxtZ2tEbGXOp2aLvTlgCAzEcJpBSKtt3qexTHMbUMeatKma6Qv8Y+NV+xh5OdQ7hw9xRmu0T0n34crmyM0EpOYrRyHF6TQiEU76w4ECF/DnpE9sY0r6urT/61y6KETuvdSfg1RNZcgi0kfd+Czt0lGSUGBEqz68YrMhvqJajQF28hqBH0PPr9NOmz/iKtgpPIhqsoqkDLLIsydXrIvHtNpD2tSFRFga7GLFX83LiDP3jGD+GZj78Py4+PWv7VSyKxP63tbeHMpETNyu+O1b7g8wnP1giW1l2b2GPv7NB2py0BAMf1ju3ESuRHcwkkwHYhzWgYZOglbTdWoL2AXVTy9QHwF7/w3bjY78FfuhVVWgahRrAVYpuLbi5Ar4OgLuNWVoVrtzbWFu/Kx+bRAIB3tpJkgSg4IHJBf62djkFtAAIAtWeoh6AUluFVaigpBASBEt8PqK+1cajaNrRmoRr3KPDodODzeZ/lMctiuXRXE3/x3GfiMVftw95Shmqs7dtYVkUHABom5CstqhCHBaeDlZTYZDJ4yurO/jDs0HanrQEASXrBTTeVua9gzOb4jPdiFGMawx2N4W+i3tqNg8t9m14frvTxgqd8K77nPvsRLt6EYOkW7KtkqBAstCtwqVpGvKR9ehiZJgQJANRVZkCg7jJd31rmzbW/DTemxLkVeQQA/MekOQBgemnVSERjlo0697RPQalcg1dvIqs1UGjNoqC1BpSdRD4wy5MuQdXLELaPYTZdxXc96N54+e88GRcSE6sCis4p+FXGZQCsF1ki+qAWBhAAi1QPLDq10eoJbeOqNgC5A26GJG8aCOzQdidV9ZaQk3c3ebhC/i+Kn0xpkwvJ+BGFf3rqAOJI+huYna5iaWERe5slnMeXfvYJ98d3P/BCzKSLGBy+AcFwGfVSAk9bSWteuwm5sifNpUCmHfM4mQTkwtaRaX8Fs0ZcWEsShUvdhLIA1DWoVYhdm0ARRZ9+ea2F8fRerPp1DE1KKZxBEbXxAOXuCfiLt+K8Ug+/+KTvxLN++AFqX4WaiwYrC8w/TSzrg5RAuzKxD5tpxFPKuDZ1UjuEyACat1xDodooXNuKUrxD25+2BACcQKq5j6a5hvuOV3m1zdSodV88GSCcmsfyAv19j0zPy35/iAOzDfJqjH53GeeHwFMffRke+9ArcaCaoYUevGgVaX8VTU2yMVL2nICIcd1iJeLyCdNvEenLzgLIhX8dTX5o082RTHobEajly2ms86et2RfUMJq7gFK9h878DEMNY5r7yalbMR0dxwPnC3jpr/44nvigadunYZbZXTh2DLVGE35rnkWi3hOi6NBJu4Cmx2LSvIsVmgF9Bk0zthV8ZVgoTNz+3GXTrR3a/rQlAGCNgOIgaaKJ+etmF8rkZeCpGginZ0oUdpr3FZqvFRrLSY+MPsBUvYxSOsL5lI2nfc9V+P7v+FaEcYJ0tYupchX9trrBXLQu6A+J8eYt7bouWXNtA/z8Vwh2371txJ8WNksyUM4Uf5emtcgj59MXKZxFgYAaBnnTik3jHdTaX6ELsOcCNOf2WXnURgm+5+H3w0uf83Tc9xxgio+om6zXHWLX3r30iAL0aSHF6jrNv7uWDvfPFZx8AQZbG8A9Y8TbWgqNqdkaxllH64tqLX23I11efyv/7cL6O/dc2ppxABkZK5EeIdHXHZHBabgb64m5jMn0g5RkXRseL4aMqOVCdfvFFOJSC7ctRajPh1p3Bn/59hP4149fg2F5FmmlhZVBxEjovaqxjNxaUguXRh/SD3aCRPOaPJAL+PqjyAmoO8pF1tEoP9pNd7oRUjRO7NwvO+Zxn0GTi5Nv6ddY02wjlhS1eSUjnC0exYXlIR5z33343ofM41KqfRWZZhP2k6IB6pjqvMpCDWxTN7XrT7ME/El+VdgM9sMBgSBAwKA2E/uXF8SkXsyI2iIUUBLUd6EWHduRXsn2tEMVs7BuHMCL33kC19CCPMk7AfNWLlBxjCo2MHJcYgzbeByABoRd+/20iDdJW1OFakBS6zY1vhqU8jrkVUuQQpKM0e6uwAt8LHfaZOQhhb+KwfIKKztAEmXYQ+HvE0f+9rWfwVvf8nZEQ61hV8Ow20M1COCx0sdpTMshYoFl9rkxGcJ8a31sHdl3mYg7tAAYLIFnkRSdLBGnfSeUf+eMwD9mwbjgIIOB+VPD33gUo0AH/dDiCbz3U/+FD3zuII6SwZf5VFoqQmOGysSLBvOdRF2CqCZNVWhpaR8nxqRyMOHWC4yXVpncEzlMspX0T5DpCsJ9+m5Ht6vLOyKrQx3dgfQ/eOkeQFsCAGrYGoUBxprwwnpQA1ONroBCQOZTorSWfq01hWOnqPXDXaj6c+gs9VGpTSHuDzGulnCQKP/qN38S//qBD+JUp4MeBWJxZYmYQgZm1EUtkUPmHTNeY2SZ/5przyCez5Wae+r07/yaCcfdkphamfH9BeblFMJdY0S7K7i618cff/A6/OwrPokbmYHDBEdZAk104C3dihlmrIk9WD6khj21wLh8ukUGGGR+yfGnZhQsqcVE72uhT7GKlRnL1TpXtoRzduhs05ZUoxqS6KVbsNZma5keMHR53iMDRhR0+qu04nfNT9N885H0S6iW59HvU7jr07iVwv/yN74Hf/+2d6FNzpw/73wMCBrdheM2dj2ithuPIluh2/OdsZ1qWq043nxqfljfZsiFXiBgwj8Jovx49yKmtMqElVPEyTKWVo9hGNAcPvd8LE/tx0dOJviNV3we/3nLGCdl7o4DBI15aLH++HiM+bmGtQ3IfJZmlAXmFk1TO4NgQaYSgxYCsC4Bsgk/qbKRea2gd3Zo+9OWAICYRz5/7vebiWuOGVVWQYZphNE4QjLsGZOqTaBPbCiFHrypaRzhi3/4qjfi3Z++Dh2/iqzewsJgYJpeu9WOTh1DvLKAjFpSABAGE12ntgdDAHKwAECkA8MaCNwu6OkzQMAuTMJWkRrnghhBs2STp0DXB6t9E+BxowXM78GnTnbxgtf9G1774aM4WQhpddVYgFqinDpdCDwJuRtMR4L1obYYuleTpby0bqO1xk6eUZZ1Ovm5Q/8LaMsMOcnUablSMvLg2CwddjHbqqG/Ki6lDzsD9Hg8SAPhBX/zDvq6N+N4TB93Zi8ijz4t3QIbDqwVdxOe99oY9Vet10B731tGTXAZibrXRHkiJsEEPj/y0uQpIz2ydnH9ja0gSe24jzjuolQMKNd7gcoc0E0xWlxC0uvCa80gbu3Ha/79Bvzqyz6D/zxGi4vYkFD+bWERkcqB/5U3ZUlXhQtqnjXLLL8xCRPbYOuYZofWkXHkpmlL6pJKGZVJsASoda5YZdAVeZ0Fmvs+ovYpVBuedRgs0B34/HHg2X/5Xrz5U7cgaZ2DUW0OK3GBvj9f0Wo61jBG4a9Se2mF274myCwi7qzC0/Bimf5iYc1AvH0BThheAGD8np8z8L+RjnnYUhprqDRFddBBshohS8oI/Tli3wzqlRDTtZB57qJDW32hegDvOpjgV/7pU3j1tSMcpFLvaF1vT6LOMmJc1uDJX8qX8p6DgIDQbky4RFunh7QRygwaPrxDW0VnjwO3BACkRbQYqIbrWDudqMirmuOvbbtpeo57EcJGwwRwyAevPQU89+Vvxbs/ezNKu++FLt8OW3to0fP5ZbUbeIyC5xoLL/NeDVsR3YL2ii095mUjVEs+BYff4blx+lcivpoDgUhH/nQN4QqT31tFEti003EDdXwHmpn8dYaMaNg7tYK6rwVDCugwv9HcPG6mpfDXH/4kXnr1EXyJb8Q+n/dYXip3kqCR2GBB58qfrP81AJDbobYaDSe2sRs7tKUkBj0LtCUAIAu2SBVTaA/d8nXMS5RqaWoyV1rCqJehUJlGSuFeIX9+4ugQv/xnL8UHbvgiCrv2Y3UcgvCAZe1DH9Tp8+5jJD5GEU19MrVPE7dSKiDUKEL1AHS76J44js7JBRSjBBVNr1XWxcdqEyhowdEQviwIgUciRpfYj3lwwdbjzwNNZx35Z0uCxu43xlVUs4DnArMY6Ui7ELP4xnVaOlMoJEWWEC2FYhtRYRGrfoSbaPn81X/egu970dtwI3PX9QvoM7vaszTtuyHZFdaLp01cWB8CgmycEFxYzgYAvKA5AwKbs8SAO7QxEiucDdoSADBGGlDIw7LNK+l0BlheWYYnrUQzncofnUHJNg75zBLwo7/xe1gIm2hefAlGWky032cUGtcvRiRCWHATfTTCUJqxSMH2KKjawNN2yKGgFOhLaO39bKAls9xAEhvqIrnSaju0DDTyDoH04B3T3YLtmdfxuMKg4dQqTKEpkbSY2uaeEcswIZBpy3LblbOgwMfoZo2Lu3HKOwc/+cK34Z1f6KHN7C4IR9XuZ3KeIch6LC/10XRRKsWsEgIgQVVrD9pGsKmgYWtYZ4fOLm1hLUpoeWCohCXs2TVFAUwQ0YStzjSwRI7918+t4od+/Q/hX/RAnOxE0JYg8eoiqo1Q4r82UMe0Nu+ZMFObF23EDy9JyHnP5gHSEhinEcGjQ/+4Q3nRxCH1cxfdqMNUDK7xgQXK/1cGgLsDadmzXqmOvlr2lWtb7qvLUwZq+jQcoR8W0aMFpGXGvIxlohU/EuYrrdFKmMGh0m688K0fwZ+8/VYtuGwLgpj931/lkQUyYlz9RSSDJQyGHUQsy5HcCl9DtXeE/38LbU1NSl6lcdTaRF7TaD9RTMbKqj66TNW/XX0CP/+Cl6K051KcXOVDMzTzewNUZ1vod5aY8MzaEmwKgewhCrpG1bnxa242nQYcCRvEr5oFN0q0+w4Zu7eKuEsrgi6DhD+gH+wJOPhSgYxuoPIV6KvcuuuIaR3R1bEgACO4aTl0U+ElBo/nGl3laeYeLYVRmWAXwEtYYhrtR4up48/gSGkO7732EH7lz/8Dt7FYaCcAtRYLlRreY51opWKaBhVtbupXzWNKWZaanmwNhDu07WnrAIC8OIi1jJeYqYBDp9pUUCWs8PdfvP16vODVr8fUxffD0nFq65oGsUhSqyhJ4uMBSvRJtZiFIYhyQanVEtojmsDa+TYrlezcDf2l9jIfloIxIpunA2q3HrL+kG4BgYRRaG89WRRqIMysDYDnCkrrhNnX3N78uFWk/GpwRIl5JhgU6BL4cne0DqAW+igwf7YdNwuz0CAYTpnmD+m/15JVmvhdRN0Iw2AWx8ZV3Ejh/9k/fD3+42CKDi2HUdAgaNQImho70GScWhfYNY1o60Jf4L1DW0jrmHKTtEUAMMKwv4RKy6OVrgUogeb8NG7WBI43/hf+8YMfR6/awpF2H6WpeYwXeYP2qfq8O7cexPQ52ppK5n1Gn53Sq1ZFqXoBAAVC21CPPM/GwmsjkVGJ1kHeOJAvZzWMMGJIekNbMFMugLS/3IDMNuy8YxIICBe2liiF5rDLtx/blmBpQWv3UWvnA3dkAukxG9SgctGSXrSNCpN9Ayo1DJjNYVDDl7o8Oe9yvOhf3os/e+cX8AXiR4dgm4S0tvo++l1GyLjKBG3bdZjRnh3226Gtpq0BAIl8iWrHG2JIv5ysjFPk179719V4+Ts+hKPqaQ7rCMpllKnVKkxlMIyRLbbRvPgKLLe75Gma6jaMTSvV6cgIzN5XoOBL+CcgILPVuFZ9jmq/0kKkIsYZdXsYdHqINe5YjYCKhuFuTaMUxZTWk0JRW3dRpL0azX2N9GnCG1Th9+n7E9gKmbpIu0j9PoU9mezvV4QNjuy2MWyvItx7AB89toLrx3W85cZFvOANn8NnV2yFBhSq9PnpPqhcigTrUrKEZLBIABC67NB2pw0DgGQkD0b2g3+sj9iJpPSowmlW0RnVC2KUajQ/eZqENRvd95w/ewde+64PwZ89gCSoU3B9E07R/NwcyqGPoF7D6tIySlWapxRy+fz6rBPnSWomsl2wQT9u56CJ9PMis6tWfrkRynlGTTjoI+v1kA6HGKfUkNSWJY0pyFcOmqh8a2FQb8IkrH1rHeh8WbCP6CH9vf37Gye9r65O3/rklQ59Q3lkukc+vFGJZj5BkxaNp777vCasV8BN6omXT/EBnkw10dHqyjN7cAp13ByVce1qET/9/Dfj364DiAMY1ynuKk5lk/GUtZ+gGyrEQJoUh4UJFtt4AXtGwXEB7au1x3ZoM3T2SnHD6wGoSnMS68nFNuHXCQWsL0OTQmBiwC/48QhBILN1RYoXq8E+0zCHqcT+8M/fgs/fegzl2X04fHwBjQPno6OhvSY8fNkEhkE/JxmXlpaw2s45diMP7r5jQJ5/mbDxGSYzzOTzu+W2EpnLuq6VRxothLWqWc6lwEPJo/lMoEhiugpJzKxppqGPWMBiQq5vrhN2CaN9cvJtlom0pRN8LUeu1Qh4hSCjOxsh5djFQ7FaAxr3/SKFXt/SM0rDiOmdeAF23/21N63sHFg5sLT7dIECWmUzdJXmWYuP/rrL8H3fPIdz+Jj6HIpJh0+mfI35L4UYJRqpWUKodgFFa/JOZNcoLxvsoYsCa7koWmVY6ZzwjJ3deRLGnLEegKh05noAn18GXvruE7iOiuMEwbKUJkyBFjyv6S2WW8L85y9vP9K8l+t+gBbfJsnVxgZIhS0ytst/qEaNIUvIhvSpJyihve8GaoCzB+Wv1kAHAIcYnvG7f4+bFgeo7z4Xh790kK7ofdBZlN5RPJOQa237qvuYsfhEAO2zdkUilTO/rvK+WQCTeBR4S8nQQpwFCqTeWVNbmiwUx0iIUAEtCO3e01+lezAYwmMaKuUQvlrWU02dmbyz/v0zwjpy0mcp0i1Lb37cQNBfzdqTN66FOtbARdqeTD2ips+IuprEJyG37lF7jiWg7xpAiPlzLa70qnwIAoUAcamCFR4XSlW89eNX4xVvuwHHeJc2A4Z+g+5GndVIwe920Ot2EWphRyZMBltbqzGVJ4O88zEaFrdS7iyAHbr7kGpmQ6TqtKq1kWhkvFJqjW2aay+GbxR81AYZKkTfgPeScobjWUrjfx4jv4VryVFPffpfYKyGPfrft958G867/1U4eOQoKlPT9o01Etescc4ZP/5nZCbyhCbnp3Uk/9ol5oPp0zz7UW+Vfi7dgohuQRLxMrWlHibgFIo+g1wEAojNYKQgKf+ayaiglng7n9zTFxi/2QEEo0y70lDQTPtuEenLsiC0T4JZbWshL9cihp0hQZu6vjKNf//MF/HLf/hW3LgKA4I+87C60IVPQW9owhbLqZtRv1MhVXc1MFB3gfp51YswIljoyN8qce39xNj5e/tq3/9NtGEAUC+U0/ysSGf/85/Ti0bEgZLWrc96FKCO3SuVWjicFPGftwK/9fuvQNiYxsnlNoJqE3PnnIuDh48hCCs2VH8ilV+R/jvxKUjz3YHgG/FcKVbL+OSni1DCG9N87a8iXjyB8bAHv1RE6NNcZ6KiiEDGF7Wfn/IuAXJBm41IAzstbJaFCb8yYshBgS8aALgWe2nvdenZApIlYC36Eny6DQ7I1oFAs4WVXoKTvRFWvSYOxyF+4Q9fj/88AnyB8hvM7WIkVVu8tOSNWEZacoXlw4Lxqiyv9ZzFaFVezg4Qn1gF79DdgDYMAI5RyDRmU5KZaepZf/qkbmlIE/SlBVOknT4CMpBE4t++0MVvv+ZfsDgO0KcfXp/dA79ax6Ja9qlZK7UG4iWt8pdLpUjfmjAm6c6IzhlAsP6orkIezUTWZcsHE59FtIwdCED77NECKNCK0eelv7SLb6oBQzx3prXMbwoSLSHtOpSHHBxskJKRPkJU1CAbAoAsgq2iPLsGAsyygYABgDS3q0DtRiQp7qwM0fGmcKo4g2z35fiVP/tXvObDy7iRjy7TLUuDCssvpX/dRZnaXeMzIkYR8yM2ulCkIrBoBbwBQ2hluUNbTxuvhQIF3GpVjoDPSmZUOa+Ts0r+mBpkhX5ogMb0frSHJbzu3TfhlW/9AK657QQ6oxKmdu2z8T1HTixibu85qLemsXL4CIJ57VyXC8h6Qfmf683bWwBngIDu0Yd1PQnuEl17YsJEKmTR+MwPhT/tLBMHOibI8v8l9GlEP5uAp7kIa/MR7I7+qlAFCk74c0fD7lgaGG+elq0iJUcAxjpzIKZsqy4ZJpaLekXCXbuB2Xn0OxHi6gy+dGwV4blX4p8+/Hn89qs/g/fe4roKU1oImnmo9wTzBZablYgurQ8sJzXAOZ7RhR3aatoEAFAFyK7TfvNaPUJMpdg0+QQ9VjGZgL5iVKzjGLHiX/7rMF71no/imi8dRmVmLy0EDzffdgSFsIbG7C4sd7qIZfs3yUwySe+AcpZxrsf/jO4IBPR6gRaArU3IyDSmQCMMA69oKwip5T9QR7ksgoj56XUQEwTSKKGgUGD8MrMc0pQvM5DlCxqSq1Z9zTqwWQr6gqXXglkBeZCg8Xg6WXc5CZZceh1w5yBQouWiOf+yBKZnpxGdOoFCpYLWxZdiQJBGtYWlzhDe/ovxb188hhe946N45cdP4VZiRlRoIepkSFeWUPNi+OM+vxCTH+gasCilH5Rz9USa++iSskMbprNTghsGAMfkQvIJOZ4nOTOys9pDWJ3GEq/91ds/jz9/6/twYlzBrn0XIB4mVDQFhFMz6KqlPaGbwKBFLDQ/Pe27/n9HEpoJUfjujPDntB4EciqoB4FCb4rLfvMnf0vL+yUZ+BQP+v8gKNiKJO02spUVMu8IDdtMX5ossDCiO6MuLidUrnVe5XPaXlGiyfmmXSdhzTXYAmJmlU7bPXnSHqGUKsXWnkH3bfnUUVTmpzGO+mgfug3hBeejOKP1xkOsnFpAeOAiXN9O8Dfv+wz++p0341qaAlljhv5/C+M2wUJrO9ItGBMElGPZi8qxDUXghY3U4w6dfZLYbogSmvSrbZrIjCEiDnRHCZnKVfNoOEa9uQfHh8BL3vI5/PV7PoLDowDdUhkrC21UaRkEFKKYzKCOODGILf6vfngJhiai3I7EoCakFFzN8JNQf7Vwe8qv20YbDFEyRCbfXs/Kl80yxHGMmMKeqWeDQWBgQqtSCinw3TaiE0cpJAQ5PoIeNVxEUWe+xrQCsqyIlOpOrfwZVZ7MYjNmlCfzsVk+amjUSD4Th60hCbxmFGr4sBuPkKdGsOUaNbUncNxfYdEwr+UCotVTGPWX+QgtojLtu8WTGFdaOFbchdd8/Ahe8Nab8KETQD+ookBgd/MtVvglNQ4CJ5aG6AkTFFhsX+vsy5IbsQ4jujIJ67REiy+YTDqLZNVtc7L1KM4CbRwAEh+1ZtUW5egMae7Rf07I2NGQVV5u2bj+P3rtv+Plb34fBb+Oxq5zUPQqNAV9872N6Sh8p7WkSJn68mDCPwlrl894706SqR8GmfgsAWuXZnS2JbelScJLPiXzNCplVMpknO4qCnQLNFN46XOfRmHQRWu2hSntWBpH1h3abEyhWq1RUCKJEeM6XbyCOc1g1Dh89RZMMrElZCWqtFljJPPKc5ca3bEOS15NCQTap4nOGo9F69pUoPAIAEO6QSy0UXUKg9ZefPC2Nn7/jZ/G333iGI6Omkj8OT4zi24vIugvYN9M2SYo2jpwyfYXwK2nTfD/OtowABSrwLHFGLVGmVaydvlNERTL6IxquKkP/MrfvgP/+F83IqnPozW1C4Pji0iWVhHUm4h8+s3UumK400F6Yv25Cw4iFPS8zviEtPZmySYQKVD8mRYJQUb3Q9pbZrEXBDQOiuicPImELsnsdAPj7hKSI7dgaraK8a3XYrxwG8rDRbSKMRrSOMMe+h3NcFT7gdIowXJpdXlw3YQSLpeTrSH3ZVeeSmdepg6Q7Zelz1kDDgh8Cn4wHsLXUutZglbIMuiqfaSNotYeYNl97JZTeMnHDuNPPrKI2wpV3NRpoE43cPdUC1hcRCVMMeh3kcqaOgtVeM+ls1d4GwaAPmVnZk5DK2m9a8EJQvsqNcJBKof/98dvxDuvO4JOoYlqazfGsdyCCK16DX6thmR1dY3RTgcJvHMInBZyhumaoNhjyriSvNkCYGSyAvJoLFr+kVYsEQCKHgV5iGq9YesSpp02kt4KGbmCKs3h3uEbMV+N8ZADdTzo3BYOlFNUhjSPe0ssixh15tMl28W53tJxZ5M8bRG5lDiAdWXhitZKnem1sJZSQS//0uRUT4G6DK3bk0CplhItvDoa0NxrMs/7z8ctwxpe9p+34ZmvuhH9qSJOEQ+RlVCqhPxAzCM1B12IvO1lhzZKZ6cAN24B0BTWOPp4sYua18DKoIDPnBjhB577V/jYSoT6gctp7tEEXO7bTLvaVB0Dao+VVfqVU1MT1nKC7oTdhbVz60ZTYFZzYWLImXJzBZB/W20A/GmBWluZ0rh4+sZ+cxrtEwsohxWcd/659IGXMFw+gd1U9fVoAb/whIfjuT92BX7ue/bhYefVsAttzBQHmCIievTzlQdHKmJB2Wk4s+xsKSkFaqxVm42OmqhD+WQ5uMFK/lqwkYvWTnC6h0PHmKBfrzXo8rDMBgQ/WkfWdlPdjbi4Cx8+NsZTnvMf+PTxMZaHLAOt3ehrPeGiLTySl84ObS1tGACox5G0l6nh6xiyNm/uAU/5tT/AqXEDhdY+dAcZ/ErDEF/TcjPN7tOss27X/OozhV8+pxP6XPDXi8xpUV+TVvu1UVKcmtSj4BCGxWCBwl+kBBMINB9g9rwL0abpetvNX8L+XTMYrpxEadjBK170HPzQN90Ll/DRK+jTfu/DLsKjHngv7A4zJCvHkfVXTVPqSxYm8ZuvbWFz6d8sWZmPnZ9fMACQ+CsobdLOJVpBTvjVWGiDd3iubkMDAuZhSD9eXXthpYJyhcKtZg314iQxgb+KiO7gcjiN3/rbN+O1n7wVbRbtUl81aqNGrGR2aBOkgjwLtGEACI5/CbM1H31W7DtvXsV3/9IfobT/vkjjGtKlgQl6EvXN10/kWwc1NGd3IyyHaB87ZAJigkiWsgEzCvx9OjjSuTvmxLOzYD9KCKwUJYwW5LdLUHVkoOZfPHIUU3NzaDXruO1LX8Tjv/NReOVf/gIeeF4Re6jtK8uHUOv3cNUu4LHfcD6+8X4X49z5Jv1l+vkGAEq70qpi1lFdbwZ163J415NLScI6iJkSgUBuCfGPlYGzggwMCyGBywFA3mugPRbT8QC9pI/OKMAonENQmbdxH8XeKXidQygki1jOEhxsnouXXX0SP/FnH8YJRkmWgSaFatzBDm2Gzg7/bBgAUJ+llhzjnz98HZ736jdgtOsCHKXc13jdfAPN4KPvLCpMzyJKMpvLr+6wmZnWuuQb531ZyMU+FxR3nJzzoPv2jD7FYENaGdTPLKWue24bcBf0V5aFhuyWRoyNkeg5+bPq8nPddAw2wYdh8RRa0w0Mlk4gTPt41k8/Fb/5tIfbtFiNArABQtW6LSDs0bK5pAH81KMO4KnffF8cKKyikbYRalix4tdIQdtVk4H6Tya0crKWbj5j6VAqeXF9sIVPeF3PuqB0u3LYPLm4LDZ9Pj9aUCHrTh4EWjl4iViqLIuUfkM8zJAmI1T9AFNhAdVCjMAbI/HoTrR240iphWt6IZ754vfjrZ9ZwSqLw5G6jp0jop7B3BY5nQbdVTei2648D7r65QCav7SeNMhJIx5dHp2icVZnzmHbks5i0je8HoAm7H7o+gU84w9ejtXybkTVXRh7NduKq1qmr5cMyMDSJtIiEgAJWQx/1Dftn0izUBBEX14ZZ1bumZXNp3PTnZTPP8jnIGhQosagZ/mwXiMeKfQ+uUcLZeh7WkWnNTONY7fcjNr0NLKUaUpp7Aahjf2Jel2knUVcda/9+D9PfBQedWXZBN+PI1TUUKg8kVxnBgVdi4uMPHSjAAcpGT/9kjejPXUBbu1QCIIWMrk/RKdClV/vdeDTX1aaJU76p+m7CdM80jA5ft+lmYe0iBIz5VHQxMi2tBe/6eQzz9+dJ1fmCjpzv3RuVkB+LrIb+Xfymsh/6z2Vg9Km4hY8SETl7gfor3RY4CGazSayXhv9hWO4eO8cvvvKefzOI89DkC4j8qZxnO6j9igpM/Ip5b1PzggYoRXQGEN+JZX1pFVJeFl9/PYNBtvgSIkqDXhLAk73gz+/wE//0dsW8HneW2Caanynoi2jkxLiSIygblo+uC2J5U1L7donmSraFBmrbYRuYXjDR69Fz28i9WvwwiqtRzIDGWiYabkGlq74RIKfT5slR8sETvmcYyV9XiKg3+uD0zZ5cDWchwkx7jUcYNBB8uK2AOeJMTLDulfErhYjpUe64dj1X8Cu/eciGkSoafkxxhDEPdTSLoLVo/j+b74Kz3764/BoCj8VPCrUIGHWx7DfRcxvDBW3PqpBA9qKLOsRJDqa8Izn/+zjUVk6jP3hCE1qRPUMaprjeJgQeHYzDWpUY1kwjpRMrkVLzRSXNWIWiRLMjxBEbV1D5Yf/rbSkyeyBjZOLQbG5AtJfXXENrwoaFnxmr4z7piWMgWmTZp08y8wxjVqfUHlikHSFIYrMuDR47IUY1+bwxaSMd9/Sxs/8+etwvDCtJUwxVaNVxfLRhscriwOUKnzfpmLHBGUBq4Tdg89nfAoyjY0zyYrCpXHyww5r2p+AzL+W6jwvO+RIorIhuv4U8P6Pf8ZmjXlk4IDarah+9ZKGxNLMlf9oTJKwAoYMModlzmk9mYC8I4nYGEnrhxmFka6GlLwWvhh4BQwCrY1HNpXlYd/mNzKGUYnK14GLVilKqLYHgyHqe/fZjkR1CuTi6gCDOOFzEX3URfzs938rfuZxD8U37AO0OkHUbmOk9QIq0yg1WsZCMjLMdtVQSA2MCOsY1hso1ou4dAZ47k98F2a7xzCXLSIotFFpFNCqVNE+zMIbBwSRABE1UUyzOaHmlwatx2PUhmTYiJyeUmPJgqJ6lDkt0JFAeiaYd29KU+pszyMOq6wH1N4EiTJBgGV8zZEO3tK/AN/2grfjBnqFWi2gReurog1hZ0OsDqi+G1WMqFR8r0qrzUPWT91O0XxW87QmNbyOVBkKEvAJmVt1JhnwmXLYIdGZZXgn6FNfHGCRKtAvq/q0lDaFXGIhW87TEjGqKt6nPx2O6BOO1OjECjGXIJ8OmlfanQvSRM535k+SlgEfl1ipssfN7aBASvgp9AWGEkGgwN/q4oooSMMSzzUisRSiR+ZcOXmcglnCgakyvM5RvOjXfwY/8dj74Yo58iG/5Sc9TFd9hGRoCX5f+wnwqKW4TVvz10gLmTK+lN+XpvKIdw86APzuTz4Krd4hnFMe0rylVutq0HyKiGkdMR2m5S1bzBfj0zj5Es2CULvvpCwr7X2or5VoBShbNnhJGneS+bspjSjwGoqrJdazPt1BCr6G4xbUaBI00M2mcbB8EX7+j9+Ct33iOOKYmaNrJUStERCNp+wv9bjMJwJK2u/b0udl3uEV3iFZMagOJsGsI3fPWSzuEcc1p8MOOdowALznk9cinN2ntmT7HUcD/mUFyA2waN11j+Z/YAAQm+/vgEFMzUrIbfg7GyakM1vxV4guwc+FX5JCoQ/SEsr0+XxZAUyP2iTGmgXo+yjO7EGPgpZGMRrFGJXOIVxcG+CDf/csE9xdjLKs1vxsaJqsRNszTSIz/0NZCWmPGruPEX3Vvl8AXX0zBsRa8k3rIY0FHh+4F/jjZz4Rl5YIIp2T1k3Y3EfzgPdpNpn5UooLllaB1JBCEElQRp4DAQmGTBzFzNOEJk8++fLuTjZeXQUioCPJCvBYlkGTDhWBIGX+bp2+D37t3bfgl97wSXyhG2LYcWsKjPsdDHtdAgXdB8ZRbQao+rR86BoUCAaC3DVWML7SDwV1cbrPOgDIH+Ivgu1pAFDYIXHWhuimG25GsVzHIGFlUehH8gUVmybYpGqGcZWiRiH5iFb0VhdihglDb5DU+CXB10Y3I2n93N9Xs7R8z1GRZiM1MR/yeK7NNB3xaJ+nz63GPK+I6niA5riDp37Xw/HCX/ph+u80+em2lCnOGgJrcTPdY9s6LEOVjFsuUzDVwk9nJqXwx8Qza3jkFUUveBMIFGkVlcmsV9CHeM5PPBKX0Fi69zkzWD11G+MVYKrdIGM66Z8SALKxTzOfVgqD2krUau1rirQWVbTipAPAewmBzNoE7s7E9GnSlTZcDaoVFOS8swzlGkgEg5AlRIunQ2vgYKGF19+whF94xTtwCx2uo8sE3OoUajXZXykGqZYQo/ul1j+BipYc03GNdD4J4kOeuTDR9UwLi849oXO7s0MiSeKGqFivIZZ5R41bUANPkRpSfh41PazC6Pur0kR8xrX483NrJb/xKpAGjMkLAgBXwyQJiCSQwhTws1qMyDUiu+rWPzf2Xw/FvNfBePk2zNI3/6Nf+yn8zGPviwsooLVsgLAQYUQNRJXP55lm5k159MOKAdlY05Wldfh910QmxuJjPNG2eiV+IosZf7KKsDRElUJ8URX4k2d+By6b9XHxnBBjlfH3zUJSQ5VWzdXu+yjQfSoRCDxq+lJqY/ArGdOrtciUcQ3I4f27ux97+xmZ9lvCx7JIowgxXSFpdZz4Aq8P0W7uw2f9S/C4P/443rFYwzXL4iDWB3298XCJ58y/uXaKZz0fifTjdNCX3ddPP6SrggapJCs798A9njYMAFdccABFanptq13QXlEUEvl9BgDWERNRg6plWMuDu6mn1nUmwVE/+6SyNhSshnnMU6/LkkJ+Phd6WQljOtQZw7ioTqSYr5ClUmp2+vTN7kE89NwK/uGPfgoPPs9pbBucpDiHQ1o30uMUwuGAyj5CQh82ihIKKcGgShNW/iofFiDwzILSkSumEn32QL6ryoTfppdhjV3P/pH74zsu3ou9/QU0hm144yGt/BEDYyiyHG28ABNBFElKEV2WIeOOaElkBDZm3NoE5D9suOruMpILoKm48ZCAynIosDysV0D1H/fQXzwKv15mWTHvQRNLyxlO1c/DC958PV7y7pvwuS7QYV61VRlLkzGq4plv8ZEF+wxpvTSrEtxZflU/TQ1Q8N1sT91Z/849lzbMRQ+57FzUMcSgvWSLZJp2onlqU/mp/bzRgAKnlQGLiAr07QqBnRcIEAXtN0/NZ3vtbyAYiMjf1xoCygK1ivb2U9exuhu1SleXaYhC+oMNjXkboFyI4bcXMRsNsK9zCk976Hl4yc9+Dy5ReyXxSgKs7qthxgyUtR8e4y0V3MKmvOTThPXD0IY1Dwhmsd8gM4VkzwJdCCfc2jpLbY/Wkqe+yDHLRXvpi9mEkTyTi/Hs77wQv/jgB+KytIdh/wQ1PcujRVCpT/EZJkg+v5Zc84aIvB6Ltm+TjEJhqxoGMwa6NVYUWxLuuF7uKBhN3DT9VsPgWL0YZYaK3B7xToiAIOGXyStpG0cpom84GOOn/+EGvOMo2YkAMOgRNAYsp0qFLsHIJqMNZSII+K1k+Q310kw+qU8LfPRNWR8JXQ+12RZZmToqPbq+XcNa2W6SVHIboq+/cArlwTIu2DdPq1o1QU2obbiGXVTrIbWpuJU+H5E6o3WgdQCcxnTTSyeG88aCDjEr2zb3ZFw0j9P+gJqmT2ukgLBFIWrQ8qAfsHrqFpR5rGQ9zFPbziwv4KXP/Cn830c9GPdqZWgxPQHBIi8IzQTUEl82FNaGxJpEM0hzOH6T/aJV72JpJV0gR7nOT7V1sCzkZkiLS1tbXK73QFDQYCSzvP2jD9uHpzzi6+l2FFGt8tlTR4DVRVSqFAYb6SLLQZtXxIwqobwzBiktNXDmoLKNyXxyZYF/1Dukrk2tO2CGPwEjKpVx3XKC573m43jD51jVtRArxQba2vWjVjagVRWZZ8myHqmdZFJPd0y67rT/jgVwmnK+v9P0IJrN336/i7D4pevha/RfJUC6eIr1F6HGc0mGtb1Zy7wEyX1KjYKaY76Z4pf1r1FdXjxGhZq2Wa6gVi3Dr9LKoLm/Sp9RADBKV+DvriEbnEIr7eAbzt2Nd/zpM/D1cx72zdApH9GXHyyi5aWoCggUN4O1uVFwx+rb1x78Ra3449IvfpP4CQwkok67ERJGEV2PoYGbUzXkTnWJynwgiOg9rYfrFtQYoVUBvu+b5vBrj30MZo4eRlMbII576LUPU+MpDgIlE6KRi/rWkNEMVIxCfsWvi9uWVJYsWwKk1g3U+pECOM0b0Z2i3MjucUr9Mtp0DZ7/5o/jGa8/iRuI60nFqY4ui6jPstG5LDUbK2GIQgH/MuZy19cCNegOOXJcvQHawzL8P49/JM5vehgevwXFQRsl2sC+X8IgiqlFNYJNbK8C1xvkWGkxVZl1B2ycg5XodEC/mgLiqzLpX8YEHtoBjJucEdN57C3Sbk9RKwww7cV45NfdGy/+zSfgHApeS/Z6v08u0vpUY5RCCR8Fk5ZAiaa2MEtaXjaMmjOdLeOyIZBQkPLRb36NCVJexI3Mmx40H575p8Cqt0LekcYsaNSc03BDG+Hm8/QxFxXxhz/2eOwlSM3V+dWA6RosMEr6/OoiHGkGXmDjF1JbTVPjKTS4ylh/m5LKWzDqLCONgrS2Gh41GMojwNXLZbRmZ7DcbqNfqeGDNx3Bb//NjfgUq3VBUbACtPx4hxUkwDYbjNabIlScX4nDvtL1eyqxJjZGLZbi5btL+JNnPwN76KtWomXUWYlVVla3H5Px1VAl7ccHrdHPHFizCjRc98tR+n9OqsAkpk+vriT65kMKbZIMqRhTlP0ianVql6iHRr+N6soCfvXHnoRffOo3oyB5V1KU6/o00NxDx30ynnp1mSDWRWBr3NN/5SUJt1KtIKYyOdeAJmrnCs8FAvkzFulk/IGO6rvWMFc1h+pd+2PtJNRgjKhPUAqIJLN86DH7gVc881HY1T2Eqt9hBjv0+QlM9I2R1YkpRCxZEgSAcXHAKOjqWG/GNiVVvtpI6MrYJrAerTW6OQW6OzbMWcOkgxm0VyKbO1EY0UprZLju4EH83z/8EN7yBbdNmdqbfFbfgEXRTTMama4HRbju+GsTTHYPoQ0DgLrIGjxcOlvEK1/065ijOvOzAdonT6DUnGHZq9UrN5YlJgoCAE1m0bBckf7e+aDK9TVUNCihQ8GPKVDVqSYqtD6i5SUkx4/j4loTF3kh/uLXfgXfedVeTPHNsETpr6S2U5EGBaUFmgMKVNVjr0Jmk7nPIqFFIdtFAq6gXOj3Gk2SomsKZrjKzdGT1nagvoHTZOfiRcXNN9QV5WuYbDZyI4h59bIm8LJnPR7lw19Ei9aMT6TUhKl+iQBQJJdbWwJj0mjCYp9lYLCyTUlCPjmdlKJ1z7GQHH8U0DtyDNMHzjFrXYu0rlCq20kBUWs/XvyPn8Wr/+Um3HzC4bkGno5Y/tYfo0FUjFLRn/b3T5N+nXnlnk0bBwBqwvahWzFLvtS49xc8++cQ0Iyu7dpDhhUSU7DkB5vqU5fgkBo0JeOqH5Y1pJrdIAkANOZ/QG09insmDF4lQNyjOl1q4zwK84Nm9uJtf/h0fOM+almq4SLtxbAyQhdLyGoFrEYD9Mk9XWrsXqmGpDaL1G9SuMrWUq1ttUPmsUJ/tGxafyJwFPBxiaarZJ4/Q3KaL80vx4B+6DigNiMfagFMyra5C2LGiM/HBAA1FZZ4tZqQYfsDJEWmv5GiMIwwt5LgUy/6GVxK59ajtRD5jEE9ElpNZ8SYpPRLfeKVAECsv02J0q+uWbmEBeazqDkPI7XCVBBTgFMN+t9dxfItN6BcnaYu2YXVto9iYw9BkdYlLaB/e9978C9vfx+uuSFCj26Ate4biLDIyHrr6UwQ4BNnqQX9fwNtHACoeVtzLXJ2h6b1EA/aC/zF7/wMKv2TqMv4HWmkmypZD4vxNdR1MipPAmNz4yUeCuv1rIKSRdNv8s9Fsj7wvpqBK7RBGk3KXYnm+yoKK8dx5e46furx344/+uVvQY1JqDIJlHu6BrTyB9T8ZBR1RwZh2Vb61ihVuewReaJPI2WYkI209C99cLcK7iSY9DHp/LzOxELSL4ZvE39GFn7+pHJg8xUm53rMvae0M6jLtFalkGc4unIEZYLkeS0f1SXgn5//WMzRpSonbRYhXYKMHK7xBPqo9aiorFiW/O1mu+nIK/Sf3f6EE7DSt8wiUVAqNB1KZjZNa0vRJmhTQjRJsESW8Vg+mFalzkjFGZGH6Mr1jy/YuhO1fecj1lDpNEZluoFg/gD+9ZPX44WvfSvedW3bdijq8cUOK0A5U5tLQB4MsohHB5bWKC3QMetJ37cL2zCcPdrwegAYkTGlxY3ZVHEhemTMz64Av/7S1+BTxyVs1FxaIERCTulo0VYbt7tEc1buNK/nLoLFIfHg0c6pgdUHrxZ23SFTK5ElMT8ZJrFmer7L6/VGQKV4ClP0m3d7EZ7/C/8X991ftH55CaDFZ9KhcYk0qycFKMhxInGa8uK1JywduqswuXo70949Z6f2I39apLj1Q9hw++s6F0vqC8q32hxKa8BI3udhgQ/+/j9ej7f91/UYVFlW03Poaqalulw1PHhIW8KGDLNcW01EBOL+8ilqzNDKJ6MV5NwwHZUIgsi4R2FYoXCMCANNflnOx0bJcr8pUgwCMCskplEtL26NA+rsSfTCGXtGAMF06ymbW8L8NsoBATtBSGvoWx54KX702w/gPsyu9iRZpdX3B3/371jYfQFuI/8tsGw1b2WqHNJqzBi/fd2+sV3puh+UE745Kv3mb/7m707O7xR1qJXSNKXZT8EVVw/IXFSnM1UPD/+G++Fzn/uCdA16xxcp/zWEYR097QRMX61cqVjjmAnmROBPB+e51ao0CbPU1uYfRdpJaEwgoJfn+ShTeyf9PuoV6s1ThzBbinC/A1N4xXN+FOc2C074rf2eQb0CTJ+0i3rp9QVVe25vKOl5OIMlxCDSmmvB3cmfOf3cJKw7XX8v/73+G4K6vGFR6VAoCACM0d3vgKf3vXQeg26GkyePI2PZah/FkU/3SkLNbJX9kOUzwHDYQZLR3KH7Ua7SjNawYYGujSoUqKicZY25Jk03Gk4zMlUCdz3JqnNaf0K50Ftw1/MZ/LrlrukZR7KihoMMXeZvUGliUKri6Ikl3PalFTT8eVx4oICARfSp60/hJBXPErM+1vqULC+PrlwWkTNl+lnM25d+9srNALijDQNAQl9ZCzrFKfUITeYkSdHrDVCr1KEu7Yfc/7744me+wCdLqHghVlaoecicQ49VW/EolwQDQrUEVf3ARTKmdqHRfHeJhnbuKdAK8Bi3Vu+ZcAGVn/P7ZwJ+t3+cAl/EUx737Xj6D3w9plWnyRgVqX4BkzGN3lUjkxa3dEInkpBJILeOJH4uVQZLa0DITFJANc5JPWWXXkn/dxDiCzd9ESO6InE8tNV442EJYa1JQGB5qD9REyBYftpzUcKv2YRlXqrGEV0JjVFQ16wAhBqQAOI2Nd0aAXCi/dXJaeg7phLTHTL9iVb2oUvnlcvoLi3h1ltu4vEUeXMeaIb49G09HEo9LI9DFKotlrOP4lAzPFn3BIAtyv5Zoy0FAPWolbToh8Z2s7KCoEzNXrbptUkvxZ6mj+946L1x/OYFHL71VpTCAJ1ulxzJZ/jPy7rwaZbahCH5ZGJOC8R6muuyEjQNN8liayzTklslfqswogffW8QFVZp+nSP48+f9Pzz08iZmKPyaB9DwGCM1YkmgYWzmACDX/hMR22IAcNrOtYwQpCT8OWCZf1q0eQdemfnlrysunqI1P4Nbb7oRM40QqyurtL6o/Qm6I00q0hjoirQ9j3KNyg1r9CxnGaosv0CjMqlKE7pQo5J6Osg4NpiIYQto0wDAIgpSugQjlqDyRCXhlX3yYxHtlSV8/oYbsTqaxlFaCSt+HV3mV5u5ygjyiKwBnxOP7QDAJmSgQBtefrRnY/y1Ozx9V1VsIUOzWqSPBsyTv17wU9+C7/26y1A8dRB7Z8l8ktK4zwpx89q1mIcW0dA0WFukQ+0CdBPicZFeRZ/aPqE5FxA3PKJ3G37cxt5qhvvv8fGBV/4GLqwCNX5L3lCQqqchgk+wceSE3+laR3eHOlcaZKyYAW7muYRegRwq275ALV8nc2upMl5RePLDd+MXf/DRqJz4Iqq9Y6jNsvS1hpZauzQ9VuMPfJaCzH5aYhqOrJb2UVEmv5ZoU2Mbn8loG6csNJ1vWypg2B/STWJe1f2qcScZLcupeQybu3B0XMY7aX2eBC0Dr4LUr1CRCHRKFP7AGqL/ewi6u9PZSf+GAWCKZS/8ERupYKmvsJokaA/6vCCtTibs9zQYD7/2tEfgp574KNQGi9gn/2BlkUypee/UYgypug2llayvW0ea/V2+P4ygLbtnqgG84QrG7eO4fE8LP/adj8ALfumHUaM/tzsYYTbM0F88QU2XINX3TbMpZS44z5LRMijDG870WSOmROonD3llmsNLIFD5ZT20KgV0lhbNuteyZA+7qIFf+KHvwhXzAcadg7zSQW1uytZlQIcWRMJKkQXQd638Gl2nadNyu1JrQOUPTTSaGBvblVRaZb9si4tom3dro0m0EegIvUIFWW0eS1mAOGySJ5nVEl0iPlcOqZj8AKm1kWxnEt9MTjdJG+8FoHymmnzTrNqiNWpechFRe/HM08Ig4smVAUblWQwbRfzD+27F817+DwgPXILjmnVXEoSQKU1QdZRoKnMUAl7y0h6CeNWEXzMPr7xwPx7/6G/DY66aQoUaoFXOkJHZ9V1PjYbDITy6DvGA2sG28HbxSbfqGQWdi4H0xS0FgjxBa5pfoCnGFADwwHtdgmC1MWMbr3RoztZqZG7e+uBNy3jOm96H6xZozs6dT9NnGnGbnG4Ls9KtGBEAMrpXjE994xokoy3MNcJOayMKZEZFltsWjSY0/Wt5/8qUuwDrZ73lp1rdeYauTJyOsMy8jNWiaAvRsAzjIc9HCFsNnH/ppThEd2lq96x5WBq9WR1mtuIzqiWC4n+TiLstOQC47ofE45ujjcsAhZMuuQmSuDKe8BKLHp00s/5aTZDxZysIyzRFV0f4kW87Hy979i8Ah29GRYttqPzNBNYJuVyCrz5b+vnorPCZAYL+ClpZH4/+uivw7Kc9Ed8j4ee3qtKScWx7zmnap7SAV6nj1MlFokGZUTvNr5jFSsqo0krY2WL//3ZkPQxMlc2WZMo0SIopTpmneqOGaNDBeNjDrhqtIF4LohSPuNc0nv+078MDd4conDqCMKEPpLUZadaPeV/vK6iVIWW8AgCNQjRBoeAXCaabHgewhSSjaUTXpxAUUFSDQExtFLMMmEctzFoI6shiupUU9owuZINej9ZpjPhcPI7tPRsTsK3p7GRg4xYA/XHrx7cZc/TJWPZiPUUm4dLav26mF6XVuqIqBOYCMj6wRF7/lp97FW4bkknp+zc1dJiM2pPPT3+2EfrYN13H4Rs+h721An7s8Y/EEx95OeZoMGhhjTI/UNSyO6YPJUD6omvk0/fXZ0h3cnFYAxpdsXe2jgsM93RyRhJcntQT4qBL5FLPguKRQdxPkFjlr5s7wHP//sP4qHZk2Xs5Vlap/ajdyrtmEa8u2zJmtJNRCuRm8YXJSk1FnxZBogRsTf43awEYjqmbhJFojUQjDc3UpaRkvQRVWoT7LzoPAy9BbxSjqH7VLEOZZWfjQwSI7s1tSOQQWj9f+BGtW7E52jgAZJqTJX2qAa++8ZIWrLGWfN0naW68QEBFrW4pyOzPSuaX3sivvuEDh/DOd78bR48v2r4CpZJv7O7zjxj4Ud/0UDzpux6B+5xLoefzMnObHuPSsL4SRYTPKfEKufCvp4nIWHANbQKjHACkbe3OXU7r03v7NOuOtLOCldvk6unM6orSXcIyld4tjOi5f/cxfORwD6OZc9AbUgrU1UXrQT0nFpeMCpZbKpNfoxrVA2CbbGxN/jcLAAaONPfHzJu5MbqhRj4tAJv4FPAiKrUazrnoAIZehN54gDH9f80p8Kloirzv+lfWSnebkQBgTADY/ECgjQMAaGqbMV1m4VM15xytMiXDSeM4URMTyhpQJSnwZiFA7LtdYjUe/5aDK/jUZ67BoaMnMD+/G5dcfCnmZ6Zw/j4fWjbOVvrhw1Rc/AYrnEg+DgMk/JZuKaynvGrF3hbsATEKg6WKV7cYAPKUiO4o/RJ+2TQuhXxCD+XBiE9RsjXIRZbAS9/0KVyzNMKtwxBdFX6F9SLhyHr8EC0EYqataKQx89L+tryYvnTX02YBQDS2RWhUigK0DB7zUyIAeEnI+vbMAjjnonMIAEN0tXozzUa9USjqPoGC4PffpeHuS3cDAOijQznXSm3U2iNyl6l/3lC9iWsp52pwdkyuQZjUSmqoyRez0FoB2cjabor0X229Nl7WMk8a6VqWuc/fslo1cqtCeS0GfEcaPKFvV9NApDMpZ+c8CWtHyyHfM+2vwDtSi1sEAEqBWHd9wefnSvP64PKhMps8oSNvpLGWK/fJCPTzaeYv8fL/96qr8fleQCCI0KfZD61zoEVPIjoMI5Z/oLEVdSpPF3v+zbuazg4A5KU4QJFgoMlTRZn/adn4sVojAFy4H4k3oAXQp46yoWbkS7WVkG8Z17ZtA2T5nS0A2LAEJKgzaAaXNCkrw4ZXTdhaBcugLmr3Ac3UIrOqzaDEK1o+t7tMae+gqOGpcRsF/h53VqBtx5vEk87JRfRXVvlWilojQDGkwKrhUMFMARe3Au+YLaLAV+2oawqnGY1PmtbnE1uo/UW5cCusz0Me8mtOBETrnqTvqsFSbWr3iAXs+fRrCarTq2P8fz9+Fb5xbxn3nS2gVqRZoLUG5TtVCQZat5EmU7GbwSfm29yDbUtMu41k9Mh6mkYk0gpUI2vZ1x6LKpuUwZZS4z0rT1o82nuhkC+8ul3JePrs1N8mSkEJkBZhFJKyEm30Up+BGkeMZwV/Oplu0Kvbb97WB2xMkzGJYDrX4p7VMrxahcgeo99Zxuz8FJqtOhX1CP1ex+YFmFlQqaCjzSEYp4RFwm5BSWBws8voO0vbr1cZJFm8Eh43Fn4ryZn3bnyiG5Gf50V5cPlwwQBMgWm39PNEA6bDoIrFzhIfoi/cW0AliG1x0mf+wEX4rvvvx57CMvzeKaAt7e+hFLaIm3Wz2LS5aV4v25JUECb8HsuI/Md8axKRNljV2hCaTKV2plggwN+6p3LUs7IO9J6skB1imUyOd5o01k7aVhFolJlNupHg0+TSTq3qbnLcu46Jib5a3iouVNHOqvTP6hgGDfRoSbRZY52UjgLdgbA1jXZ/SLCgoBIcxqGPSBXM37rmlWkRMDoTFGq/gvwIa9xS1+MkaNynfP4JCIhnZJ/kwV3dGnKwqUnJMkpj/tYSX0xV7h7dPkwOTpc50tqKrUYNh08cR2FK1lgPiZY7573HP3gXvv9B98L9Z2juDlgOfQJAoUUwbdCAoOOmNfTyiLchSeeb8BsAqDlPoM56FRZ4PGEYMkQM2jtCI07trZF6APSOrIcNs/7/KtpwKWgwhrpTHCvlGlXR6YqVOK+5qwIAu6qflEQxscpfjYAUVc3fYaX5KAXWVGj3a7WaHVMKhu0uQ5/WXmfQaC53pifykN9VWEcuKWtXb3f3bkJfIe1fgcj+ZjFU+G/f7nOp5Lvwa9TtfoqVE7diDw2ln/y2i/G4B1yKSxsh6gTEMkEyo/vUiWP00pjVIOuDwSwmmcaqO8aat40QaFV0GrmtzU60PblpW9kpcqF4d6P/Nk1m4YnrdF7iT9+CpU1X+d+VpvhSPDW5b+Y/b6+9qwe3YbDU/8945b+jDTcCThSrS4sVNTWNCaJIF8WiZ3RkrZFezZ/MKX/q9sfbk97VPXefvywdeWJE+RMiHsnIovyJ/Hg6jq0gpSIP69JqibuDVE0urU/7mQXIsrepvrwoq0lj4Fn+mp/xgS8Bf/769+DmjvYwbCGY2YXeqZPwmrS2egQOWmHlctMWQ9FGntYHKzlSo2E2QiXVIp1aPs1DRHct1WIpkqKRW+Hpa01rfEbKGwTNl6dqFxyNJ5aeugRt0SYTkCLCeg3nXXAur2aICXgaNqxlJEpe2RladDX5l2E7knNrbnzy5scBqAw3RJIrCzq3v0Jgqh4L0tACAHfn9mGiR84IetpBhgt39J5Cfs8RzywRvLoWcg2mcMaTa+8rnL6zFZSn5HY5Pl2gZ4YJrf0U3yoYwyvw/dykNe2WUOOPbITGN10EPPenvwOz4zamSz0K/21o7p1FemoBfn0KZVpaURzBp1sQ1CruA5GEQyQwkdvm4nfflvScgT5bQ7RgbByApZEcJA2vYc7yBZhGLS7qLBtpfVoBMvuZj9O7K4vyEt1+Ibe5N0sTrtmhbUfr+UFDYNdATzdp9KpBrN2HRotf2gL+6ve+H+HyLTjHW0WgxsG5A0gKLXRWh4gTuggh7YZxF8Wog2pIP1lNEgT1filEly7XUPJTSBCmXQRpn+7f117779Adk9w2LZ1+NmgHALYpmeKnsOfBhN+qk4EMEndXMd+q2rRtWQItKvU3/fH/wVWz9OVP3oy6ukNTaswSj14Bve4yRlEPTZ5XRpm18Vi7gBbO8Epu4CA1p7ZGL2da5PVuYAXcY0mVfnZE9+zEskN3KeVCby3fCrymhcxdh6KrUg0U0iiqVkkrJ8W4F637/bz+J//ve/CNF8xgtHAcVP2oTU1DW3cnywt8f4ypWh3dhWW3y7FQhvHbuA0GbeBR1MgP+t1nywTdoTtP1omsqfNngXYAYLvSBAQkhtLFbgrRBAQKJVRbLSwfO8I7Keo+zfskQot3K8Mefu9nHoPHPvhyTNPk7x35EkqpzIQGEiJKL6KQa0l3+fym5WXqK8gkcD73ZFgNww5tDQl+dyyAeyxJ9NQQv14MHQioY0/Ouof24gqm952DdLWNca+DYjKkXz/ATAjs4hPPfPw8vv8B52BPsYPysIPW1AyyYhWnuhTv5gy0SpPtPrRuXIWGaw9LAYOW2Nphna0jwvBZcsF2anGbkgR/PQDc3hJoze/F6sIKvPoUCrUm7XkCgxbMyFL0lxZwHl/+ue+exY99y1WYilZQ7LQxXW9AozJ7g8g26JCQW2v6aCTlz48UeN1jkAmqr+7QVpDT/8nk1+ZoBwC2I1Eo3SjHlKIug/z0aAsHAjxSWzfnd7OG6SvKX9Q+AX6VQFDB/EwLpd4q9vK5n/z2ffj5x38LDhSGwPJJzPGehmWPCAClOs+LIUZ9wkrKr2RkvSSxqfeGB0rG1zyMXVAn/+Siu5bfY0ImZBOIJmHtvdsF7fqk492dbp/u9UH1Xhixvs4C7QDAtiQxsABAou4WDxEA6KqChHOisKUuJoFVrXkYk8ajRo3vdE5ihorkyQ+dxs889hHYW+hi4ebPoN7w+XKKOIqQZSViSAN+qUxmYRw+QyC2ufsL0f9WsjpWnZ4F2gGA7Uom7U7kcwBYzxM5EKzvMdD6CRp+rVWcx3QHKnUflbiNFkHg8ff38LRHX4XLZhnX6kEUwonGHXkYpR6iwQglAkjJ1tbqT76wQ1tBWlA3UUPtWaAdANi2JHFn9dkIvdMjLlWh+blCTrlV4GwG3vPKiFc7tmaAGgf7x5bxxAfP4Pef+Z3YV1pFcfEg0F9ya+4p0pim/2iMQEOBd9hmS0ktAGON4zgLtFOT25JUbWrtFxPo6IbpahSAgvUDUEHn04lvDwzS3SlCBK15nvF30sfeXVU3arAG/N5PfCcuK/fRHBxF2DuKhh/Dq5ZsSa0kKSIstwx4dmhrSBbf2RqItVOL25ZycXaUC7kbCTAx3y3wIoO7d7rCs3EJPZr1Yy9EoVGjPGeIhx1oK9eHEBd+68mPxrdfPI1K7zagcxhVuQTFIlJa/5Em21tsO7QV5I1SzAU7AHDPpon8T+TbSJpBIwHUgAdtB2b99wp08sdumJBZBwz9zgBhpYZ2VsTxKEW/UEGpHCJaOmUg8KgLK3j6t16JR185j13hKgqpVoHWB2kiDNWQqFh2aCsoZJ3eZ/bslP8OAGxjOlP4XTiD3OR3F8wq0CpEbhxfq1nFwlIHhZKHmnZujruIBwPMTTeQtRcxPHkCD7loBj/x+G/D1120G+FwGeWkg6JHgFEvgEYFCg8mH9XMO1ughc6F+qg1GkE0LhB2igruWU3l1XJklqQN0pflc4OkeDYWJuXpBkcw6K+DX7OMbMERj3lUKLFsFIqujJh3t+KTe8PFyHujErysBJ8hX65txEIa2RBslbWCVjjiF8YRrpg7OxbYJlYF3qEtpUmt5QIocqe6wWD39Wf9A/kTjvXsEZKsBiewDDbLjMxVCLAcFZCWgWO88pp3HMLb/+NqdEdVlGZ34US/azKA1gymtEX3Ai2EUYQoOcWII3i1WaS0KlCkxaDZikX6DhktkMizRUaSUmoM/tXI+rxzOuOcQXsBMvOuX9z1goxtoj8Df2ib9HMvOJ85GiNOEwKXx8+PUNAGs4ojY57XRXl7yhclvSOSMI7oMo0tIRJ4Cb4Tep3bKoXCB6bFxmjou7yQBwGH5lVorIY2bNXKRmFKAKDgF/lsyrKJqsTZZoh2Z8VgRdvqD+MRFno9nDdext//6JV4AIt2s6S4d2g7kviTYXKw4EhnrFbr95cg5+eq6tNPinV1JrdAjGqraaxNMR2j1+tqPJAZ+nMMP/LIA3jKIx+Mc70V9G/7PFqz07CFRhcXEa0uolIrIIpW0ZzbRelrUfDUQKkvyB1hsNFDar2m4GhXp83QVxHcu4KshJkGaXKnzSW4Cu5cwGLBns5/OME3y8n+aaUiLU+m51LiRsTiGSIrRcS2DMNhjG53iErYYBQe+r0hVlcWcN7eaeyfIbidBeEXiSt26B5I5DtT4E53MqwBhCPtQzjsqsXP7U68h0jwPQ/fjSd96wNxwXQZ7UMnUPDr2DPVwuDEzVhp34BwfwWrp2KUpy4nQ2sUoYR+FX7SRjAowouphcngUdgnk28SBLaQZHnIVA9Sz7YpD7MCj2ME2Qj+KIE/1jL4Ea0IFl5hOBHsGIkXI1YgLmtV7fGoxngKhIEBkmAJveoprNRW0C0PEcUZgrgKr+9juAA0CaoX7t6F4vHb8N0PuMjg9WzQDgDcw0lA4ISfIT8ajWiakpGzoZns5F+cEwDf+4gL8LTHPgK7ydj7wyKWFo5h94G9jGiE6MQJFOd2Y6j1xWzEoUeBGKGcJahq0RG6CLa3m4T/vzH/79ZkWt6tNCTfXduNa85EiZaOtsQrjbUlXsQQEwRUFglfSWjypwZ8Wq488uiamBuvNhm6XrSMUvr7WtJcfr72LqrRwOosRWgGIWq0HGYIGw/aPY1vv5frAD4blNf2Dt3D6LSuF+UWQO4y0DftD9BoVNCQ9HfbmAvGtuLwLtqsT3rwHP7qZx6N0S3/hdr+aZygtqrVzgfiJjzNKaCP6toTfNNyOvqFFd5botDIJRDnn5mC7USaFak1EjMLdKKsvUD+vRZZlfYXADgrID+Xma/7an2RNTAIVzEod2gV0Pwf+yilDVpK0/CSFs+rqNfrWO30Ua4OERSXUI5OIjt8I579uD3Yx6+pLfZs0A4A3ENJLKvKPy2GEnwJpgsljzY/tXfBK6JWpzZPuihoObDCwIDg688D/uJ3fhD+ymE0/RJ6hxbRmjmAeFWNg+qCHFBSqPmoq5KiT9M3I+NTKKg9tXafzOjtShL4pFhAVHLLjmuDUu1JMNbCKdTkEnbrDRkLEKjhaeyUrBcgtxpoMdhy8M7fTxnXyNY01K5GWoshQFijZUErodc+hrmQ1sPhG/BbP/ZQtFisU8TQs+VB7QDAPZBch5VMT2mt06a49Q5YwyGZNKxi0JcP61hk2GmT0/mbQj3snqKRMMZ954DX/tzjsfvwzZi74EK0BzR/Ew81Mmc5o+8/btP/TTEkQLTLVXR8+rSZh0qs7jCLdluSVmGSCT/wXTBznpZSwkylDCOBgZWrGgblIvgoZgHdqRBeWkY5CTA9KKCpPfVp2uv9iHibsKjNIWAdaB/dYwsn8IBLaO8fP4Tn/Mij8JAZCv+QwEFg8fjds0E7AHCPJDKPmeIaICRV4qRRLKUzXenH9N0bLQODNEpR1hbuYZlcmiHwtSfkABW+cf9p4BW/+oPYF59CebiEuUaVEWhNQer+EbWhfGBTgXRoi1WauxQEaUL+277kthyT9j4dtPuyAwdtYCMhHsHthqXFVUcImXctSV4hIAQos5DDTD0CcifcEC3talxl2TXjITq3HMQVcyFGh67Bc3/yG/D1B/jZlQhBg6ChHbi0WMtZoJ1xAPdEsrUEaKabuEvjK/jy2u2KGEJBIqogLSHHwO7qXTLfYEz/VqMHCQXa9PmWU8CL3/RpvOqawwj3XQSvnyFJB4jDGGPbm7DBSCqoxgmSTo/uAGP7KhigfvivOA5AiZSkyY3Q9bXA6zryshcGOP+iC+0bKYGo5NMVydTdxnjp2niM/6u1Q361cQDagSj6/9u7thhJrvL81b2qb9Nz2Z29eHZm1jJr1tjebDDGkZMAwRFIyC9R3hDiiSde8hoJHvKEoigoL9zykAgLISdKRIKsBIkIJbZC8AOyQIlsiGO0ZtfMzr27q+tene871b0zBi8Ps8i70va/qq3uqnNOneo53/d//zmnThHwmscgBaV5+bNX0onrzHsLpK/Uw++FCCICmXVWdKSxfBcpwskOvMjBwA6RZBZaJIYzYYRuQcIcvgU7v45nf+8RfOIDPeiJjSDjPVgMGfxGtzkkFeq0pkJ3YHMCuB/NEIDkvMDcSH4RQNON1eBL28zUzASHoz2lbjVCTW+llYUDjVXzzKs7E/zVS6/j+ZdexcLKe7DNFl95Y7iLPYb9XaYnQPRCjpoxrfL+GruXCUAz8ij09enYJlMeUQKje8r7qNXh72QhTnKEURv9vggA2P1FjI6Xo8pjtHpdLHd75j0N5c23cHXtND7+5Bk8/AAY+wNd/uherZCNfy+GFzH1WVoWWHD7pN6Glu/E5gRwP9qMAEwjZgubKoDpgJQ5OmveM5vBQXtNDnKrFHUSw/Yp+SWHXX63urix6+PL//wKvnWtwJuTDo/J1ddw0sQsTlR0RCMsnY7OoPM2di8TgDy+X6qTTypAcp8by22kv2J4hkitNuJUoHXhBw7iuMDB/iFa7TbOn40w2ANOMaJydvcx2XkVT1xs448++hguLQPJXo0Lfdv0kzD6Moqj9kUrYxN6NZ6/Y9TXndqcAO5LY8sy8b/+9GzoZuhP3kS+vcGXNoOn6TYzfdYYtGJ882ig2qBV4mBwE53WIhvnCrZT4M++8zN8740Yb2xVLN5HUKcUvjFqPXOskCBTq1ZDfme7lwlAcxuiXOP9emGtbRZQVU9+wb02HasdkgHTFUWOsszRCn10Oy2zEEsyLKgAenAPYjyxXOPZJ7u4skkyYFpPoywMG8iv8LzAjDKoT0abVQ7RV+hm86Cjtz3MCWBuJzaDluajzABHjX7W8CVlj1Id30QVehs8WywKd2iOehNK/CG9Yuii9H3c4Pm//Zf/xT/94AA30UPiVYizfSJzjKjbRlrodV23n85y7xNAZSZICfwN8B2z1/eKBVcMc1yHXrtk3J4OEZAkFyLXvLHJSUusdVbxzPsW8Mx7gGXyoHlo0xmj8FPklEce2gQ960yQ63YF90Ut6RRLvfFIhzpM73G8Q5sTwH1o+oOrUWkvH9z4YR5Rw5qd0UnTvqYppBJ4QGd1OEsq+JFNrz7gWRth3TWveh5lA7QIcJuK4ga54YUflfjGf/wYL1+/AXdpiRI4wuGAeUKGB9Mrv5PdywSg13IFpTr+GMkYBSDwk/gM+JVC5ZewijFaVk4okwSG28wzxmMPXcTTVy7gynlggSl7FGIB3bvNOooAqlCvMwUOqoTS3+MteqQAH506QEuF642vJTMtkjwVi92hzQngPjThRyG4/vCCoNqRnlq7NSyoPgKTSqYWPSOAZq+JMPt1Bt9us2lS6tLba6nAGX8Qa4gPxmgvtjBglq9/93/wzf98HderRSTReQwGCcgYTCxh+852LxOAOWMenGqG8CoSgPbqD1Al9OakcnTIGN9Ct6Jsrwn8tRX87pUzeGi18eZ6vmJSjVmf5kk/XyFVkpt3MsJniDQtH1RTxvixKEoMa6ZxbXSD8DfQBchi5wRw/5nwc5wAjKQ3BCDwC5RTmXnLGuCbViiq4MeB6Y2u2cC7aJFBVJ7MqFIVzG1vdw9Oz0MddfHtH+/jS//wEl7bc9DdfB+29aAR01ps0A4JxzwlaLKpJg4ByL0B/WxTvbg3QGdGjSOqIub09LhsurcDD5sXLzLpBGVVwfNdFHovgrIQbA7LJwXwt2gIrcmlcRDet8Wjx9hBn9QF19y/NiXRI73y+Hp/QrNp1l9A6R+VKXpVjBU7xeXVDp66fBaPM8bXWIl+a0O4+R7rVFM0NcOvrkZTaoJdM4B0f7rMiERJ0kKfOZkx5W91wDyBFRoCufMeAF5mTgD3nzUNutne3qzZ+N8GupkdpTB7gcrQiMajtehFc9jYNJuwlhMQKVWFEwRgU8b3X9vB37/wXbz4ZoqdtQ8zUQtudoB2HeMw2YZFb9funcZoQDqxNLqga+kzYwsNg4kECGYDoUnIvUiAO0MA3MumBGBFITY31sljJTHEeJxe03h+h2VKFpBANEGn1PwHSncdYuRO4GekhIKXiVlKBcvhHXoBHHllSnLhUe9GKIcjtKIItR+ZYb40zdBmTHDGrXDeTvCxR9fx6IqFy+fo7Vld9QnEeYxJRG9v+eYl+qJUUQ5ry89ipmnd3sl0mElmxN2otju3OQHM7QSmJiMgat804OObjooeMv6nBnsYU+p6Lrqhj5/e2MLn/vrb+C9cRdFdx4KVIN2/YdYeqCjVBzf34ayuEWhq4vKX8shCHQmAZKKHbfQwUT0RhJSGZghgWpcZAbQibKxvTAmghOcyzy0CYAKtTcDyzYw9Eo2ZFG2YTLMXSwQepTwvb5McUgJ+lOXIJcvdEIHrY5nl58MEZTKEV6VoT1KsdV08/fAFPH3JxTm65xU686abU4oqRc5YqfZthh8kFBM86f7urs0JYG4nMM10bwhAMtoAb7ZN5evewQDdfs+kGuU1gWYhZHxwWEzwxq6FL/zNy/hpEuB6sgv7zAq6Y2qKcYzu+SXc2HpLS/owJ+FTKx62YVW1CRUohFk8EWxctkA8IRnwf7biRqbLbHjtNi5sbJJUSEJUDQ5BW2lCjaOFOAjyCWNpKgqbIY9KUR49kFNpyq7AqbKVj2kcn+QQ2MhJHgNKgCS3UOxlWKU0fyiMsW7t4gOngd9/7xlsng6YV9OEpSOawEV8I6rSSv4+ScgcIfEYhXOXbU4AczuB3YYABP4pCNXM9XWUEWx0pVTSjGH5PUnRbYfYGgF/8uffwiu1C+f0BSQ7Fcq0ZJw+QPt0H3HFoEH9DoYAXPP024wAzFN2JIBmSTDG4oYAVKdmlEJxfdjuYG3zIkqmyRjzW25gPluOx3R6PDdhqqxZvINlmKcTJz4BG/LOQhwMUkRhF522RfWgkIbxehFTRbAipo8AWHIKfGijjz9+f4jLRHcktMf70LsWEhLN2NaLVD1ep+n4k2YxfZ9SElIizU9110wdnXMCmNsJ7DYEoE1AknE3GufwKfuF4zglrELT1YiDeIiFtoetfIIvPf9DfO8nCV6dnEKVOOj1TiFPB8iDBLUmG+ihF4Lbkvc2QGUYQEVgVwSWJhLx2ETEwL1MU3RVq4YAHkTO+vDSsLzQfLaoBGpDADE3hRR6TJcemp65UQIEu3rlF5dx8zDH4WEGl/keiHysMSxYzg7gZ2/i/U+u4NGHz+PBrmeEvD8G+kS45gakMfc+Awwt3e1q2rA2S7rD7HWZkD/KbyKGvxNTeDMngLmdwI4IQEh/GwlMCeDwcIBOpweb3lOpkqzx1JoW61gF4vHr6LTOYFj18fmvvYxv/uQA3gOPIh0wnYbrrBEVfgItIaYFOBuNL0VA4FARWCWBp2vVkvM63yy4IQpQ7cIWQwAqAIGeIoTRxBEBVOpToJJo+jGaxUUFfrM2onITnDv7h6z/AtrM545G6Ix2cLkf4Q8f2cBTl4GzCyXL3WH2Bcb0EZUL75nOv8vYf1GzHdVn6fGgzQ+2SGrCKzKgsCNeyzZqYNqDcdfMoSybE8DcTmCCmDzurOn8MgnQi+YlXMrgYRwjCEIDfHXgH5AYlpd6TEY3ye+jom3mCjz/4h6+8p3v45pH9AQ9tHI5zwKZl5nn7OWf6TeZh2Jaw2Xm8rwQJbmlzSzDRcAxj/xs1IqwvrmJgklMCKBptaquCIAVrPQ/pbwUhroTCnr9mrE/qcPg9rQ6ALevYXn8Fn7rXAcfufogHr8UIvQIHNa7m26zLJYx8TDQDL2ox1ChmaWfjzO0WA9XnYo6oD3lduF6JIDQ/GoigLvdBeh53pwA5nYSEwGo2Rw1nSMCoMkz81QyGsMlKCx61CzP0KZXVqtPhvTqjKnb9Kg1v8tZapjwuRev4S//7QcY+cuwE62O4xGcWmiDoHKIJIuwmTDY5nHjvCX7FZPXGhkQ8LmJDHhSMw7XNzYY94sAKLw9xveq7pQAapKFWXefwFRXX2UxpGC9NSFnoRhjJdnBB9c6eObSCh5/wEWfvKPbUj01/u6VZKhc/RSsg2dDgxYql3fL0lhhTewx0wLl51l31l8PDCU8pHcstimN7iYBKP4PgmBOAHM7ianJ3K7ZHCOBmc2SHt8Lu8RFzi2bDAkQLaTVwQuvXMMXnvtXJOcexy/2gFbRIpj72MkOYS116HEJ+JSA15x4R1BkQVqpSDD2CSmGBBW/n1u/gDCK4HEj12CcFSjUj0AlEIQO4uEWOr0+7FYHY4qRZLdEK9vDw9EI7+2N8JlPPIZVP0E/0qO4Igw9LdnMy5/dhpy74G2Z+bnaWA+Rknk/gBhDcxVIWCRARS/iA/HWMVq4ayZiNuQ8J4C5nczUbH616ehIowZk3B9PdmxPGCPRf0RCjQN9Q+j2Mcoj/Ptrh/j0F5/DuSsfxf7NGoPdMRbWzuJwSNndYZkdgmqPMbw0PQFvVtuYdgJqHrLje1i/eJFxeWVAr5jeoQLQCIBJVRVo+yynLM0KxuVwgBUrwxPrC3j2t1fw1AbTHG6jEzCsCKg2LAE/IHibsXuBWJQjk5QP9BDEhCwyW2PBLHpK8EuxmK2ZaNSQh7oBNQNBLxCZ/U7vrs28v/k8J4C5nczUbI6azuzTbD/rFTB2PKn2lMJjnhzlFWNqByE/V3lOAmAMzs8696Mt4LN/8Y/4P38JZWsZQWJjvL8DLHnonlpAtr0Pi/ltxtU282lacpWTUaQK6NVXz51HwJDDD5q+/YzYrBgKaEZgSNLZfbPAMkF/aWGID244+J2HAlw6G6DlshyGFAoLbDug32ecbOqtOQMEL8MGEYqW9FS/hKJ+wd3lRRQNHP0AOsD6mH6G2QmV1MC/mQR0dzSAYn91AMrmBDC3k9m0x7xBR9O8Z9vMdOpWE5+d0N6eYEyIjaqM3rOLNtuiS6yYxxCYKWOaijj+b0YGn/ri32HYWsXe9TFWVzewvXMTdRaju9hmUTWltcvYWgTAvOpQCFsIOl2snFo1M/80d1ejBAakBKUmAOtJvhXmuXqhhz94BLh6Hlg0XnyIkuFDpmW6g1NGpai6wrJTN+v9u45ALQUjICviD7nxH9NoM9bgnKYBSVFFk9ocVNyj2phVmN59AhDwRQAzmxPA3E5mMwKQqV1Pvx0dVeNvCOAWHmQ6SY+YEhQZy7BTApYn1SSFCRiAJRgQ5KnfxZ7Vxif/9Kv4eXAOadbH2WIF8Yjn+jnysG6G+HJe3Qlh95exsLhi5ujvbG0xfg+w1PaMRHfyEYJJgX7Lw9kgwac/dAkXug5aVAiqm5njTw5gFvXXGSWiexIJmBmElPcePbqv+X2U0LC0JKpmDDZ3ptsyowncmzzTY9IJCiDU92/W8dRJXVGPT2o20btovwx+APh/zxngYofu4wAAAAAASUVORK5CYII=;" vertex="1" parent="1">
          <mxGeometry x="98.27" y="240" width="46.55" height="40" as="geometry" />
        </mxCell>
        <mxCell id="FVp5BuUO7eJ0VFPydzr8-3" value="" style="verticalLabelPosition=bottom;html=1;verticalAlign=top;align=center;strokeColor=none;fillColor=#00BEF2;shape=mxgraph.azure.github_code;pointerEvents=1;" vertex="1" parent="1">
          <mxGeometry x="96.55000000000001" y="80" width="50" height="50" as="geometry" />
        </mxCell>
        <mxCell id="FVp5BuUO7eJ0VFPydzr8-4" style="edgeStyle=orthogonalEdgeStyle;rounded=0;orthogonalLoop=1;jettySize=auto;html=1;entryX=0.5;entryY=1;entryDx=0;entryDy=0;entryPerimeter=0;" edge="1" parent="1" source="FVp5BuUO7eJ0VFPydzr8-2" target="FVp5BuUO7eJ0VFPydzr8-3">
          <mxGeometry relative="1" as="geometry" />
        </mxCell>
        <mxCell id="FVp5BuUO7eJ0VFPydzr8-8" style="edgeStyle=orthogonalEdgeStyle;rounded=0;orthogonalLoop=1;jettySize=auto;html=1;entryX=0;entryY=0.25;entryDx=0;entryDy=0;" edge="1" parent="1" source="FVp5BuUO7eJ0VFPydzr8-5" target="FVp5BuUO7eJ0VFPydzr8-7">
          <mxGeometry relative="1" as="geometry" />
        </mxCell>
        <mxCell id="FVp5BuUO7eJ0VFPydzr8-5" value="&lt;b&gt;terraform.exe&lt;/b&gt;" style="rounded=0;whiteSpace=wrap;html=1;" vertex="1" parent="1">
          <mxGeometry x="220" y="235" width="100" height="50" as="geometry" />
        </mxCell>
        <mxCell id="FVp5BuUO7eJ0VFPydzr8-7" value="AWS Account" style="points=[[0,0],[0.25,0],[0.5,0],[0.75,0],[1,0],[1,0.25],[1,0.5],[1,0.75],[1,1],[0.75,1],[0.5,1],[0.25,1],[0,1],[0,0.75],[0,0.5],[0,0.25]];outlineConnect=0;html=1;whiteSpace=wrap;fontSize=12;fontStyle=0;container=1;pointerEvents=0;collapsible=0;recursiveResize=0;shape=mxgraph.aws4.group;grIcon=mxgraph.aws4.group_account;strokeColor=#d6b656;fillColor=#fff2cc;verticalAlign=top;align=left;spacingLeft=30;dashed=0;" vertex="1" parent="1">
          <mxGeometry x="470" y="210" width="220" height="220" as="geometry" />
        </mxCell>
        <mxCell id="FVp5BuUO7eJ0VFPydzr8-9" value="" style="sketch=0;points=[[0,0,0],[0.25,0,0],[0.5,0,0],[0.75,0,0],[1,0,0],[0,1,0],[0.25,1,0],[0.5,1,0],[0.75,1,0],[1,1,0],[0,0.25,0],[0,0.5,0],[0,0.75,0],[1,0.25,0],[1,0.5,0],[1,0.75,0]];outlineConnect=0;fontColor=#232F3E;fillColor=#ED7100;strokeColor=#ffffff;dashed=0;verticalLabelPosition=bottom;verticalAlign=top;align=center;html=1;fontSize=12;fontStyle=0;aspect=fixed;shape=mxgraph.aws4.resourceIcon;resIcon=mxgraph.aws4.genomics_cli;" vertex="1" parent="1">
          <mxGeometry x="245" y="310" width="50" height="50" as="geometry" />
        </mxCell>
        <mxCell id="FVp5BuUO7eJ0VFPydzr8-10" style="edgeStyle=orthogonalEdgeStyle;rounded=0;orthogonalLoop=1;jettySize=auto;html=1;entryX=0.5;entryY=0;entryDx=0;entryDy=0;entryPerimeter=0;" edge="1" parent="1" source="FVp5BuUO7eJ0VFPydzr8-5" target="FVp5BuUO7eJ0VFPydzr8-9">
          <mxGeometry relative="1" as="geometry" />
        </mxCell>
        <mxCell id="FVp5BuUO7eJ0VFPydzr8-11" value="&lt;b&gt;Auth&lt;/b&gt;" style="text;html=1;align=center;verticalAlign=middle;resizable=0;points=[];autosize=1;strokeColor=none;fillColor=none;" vertex="1" parent="1">
          <mxGeometry x="270" y="285" width="50" height="30" as="geometry" />
        </mxCell>
        <mxCell id="FVp5BuUO7eJ0VFPydzr8-12" value="&lt;b&gt;AWS CLI&lt;/b&gt;" style="text;html=1;align=center;verticalAlign=middle;resizable=0;points=[];autosize=1;strokeColor=none;fillColor=none;" vertex="1" parent="1">
          <mxGeometry x="180" y="320" width="70" height="30" as="geometry" />
        </mxCell>
        <mxCell id="FVp5BuUO7eJ0VFPydzr8-13" value="&lt;b&gt;Infra creation&lt;/b&gt;" style="text;html=1;align=center;verticalAlign=middle;resizable=0;points=[];autosize=1;strokeColor=none;fillColor=none;" vertex="1" parent="1">
          <mxGeometry x="360" y="230" width="100" height="30" as="geometry" />
        </mxCell>
      </root>
    </mxGraphModel>
  </diagram>
</mxfile>
